<?xml version="1.0" standalone="no"?><!DOCTYPE svg PUBLIC "-//W3C//DTD SVG 1.1//EN" "http://www.w3.org/Graphics/SVG/1.1/DTD/svg11.dtd"><svg height="1000" node-id="1" sillyvg="true" template-height="1000" template-width="1000" version="1.1" viewBox="0 0 1000 1000" width="1000" xmlns="http://www.w3.org/2000/svg" xmlns:xlink="http://www.w3.org/1999/xlink"><defs node-id="152"><clipPath id="XMLID_2_" node-id="7"><path d="M 342.40 752.10 L 330.80 750.50 L 311.10 747.00 L 284.40 740.70 L 258.30 733.00 L 235.60 724.90 L 224.00 720.30 L 212.30 715.10 L 200.20 709.30 L 188.40 703.10 L 176.50 696.30 L 164.70 688.80 L 156.10 682.90 L 139.20 670.00 L 131.00 662.90 L 123.10 655.60 L 115.50 647.80 L 108.10 639.60 L 101.00 631.00 L 94.40 622.00 L 88.10 612.60 L 82.20 602.70 L 76.70 592.30 L 72.70 583.90 L 69.10 575.10 L 65.70 565.90 L 62.70 556.40 L 60.00 546.40 L 57.80 536.50 L 55.90 526.20 L 54.50 515.50 L 53.40 504.30 L 52.80 492.60 L 52.70 481.20 L 53.00 469.30 L 53.90 456.80 L 55.20 443.80 L 57.10 430.20 L 60.00 414.20 L 63.10 399.20 L 66.50 385.10 L 70.10 372.10 L 74.00 359.90 L 78.50 347.30 L 83.20 335.60 L 88.00 324.80 L 93.10 314.70 L 98.30 305.40 L 104.10 296.00 L 110.00 287.30 L 116.00 279.20 L 122.10 271.80 L 128.40 265.00 L 135.10 258.40 L 141.90 252.20 L 148.80 246.60 L 155.70 241.60 L 162.70 236.90 L 171.90 231.60 L 181.20 226.90 L 190.50 222.80 L 199.90 219.30 L 209.50 216.30 L 219.00 213.80 L 228.60 211.80 L 238.10 210.30 L 257.30 208.50 L 276.10 208.20 L 288.50 208.70 L 300.50 209.60 L 312.00 211.00 L 334.40 214.80 L 359.30 220.80 L 371.90 224.50 L 392.70 231.50 L 403.40 235.80 L 415.90 241.50 L 458.60 262.60 L 486.10 275.40 L 509.90 285.20 L 522.10 289.70 L 534.70 293.80 L 547.70 297.60 L 560.80 300.90 L 574.20 303.60 L 587.90 305.80 L 598.20 306.90 L 608.70 307.60 L 619.30 307.80 L 630.00 307.50 L 640.70 306.80 L 651.50 305.40 L 662.40 303.50 L 673.50 301.00 L 682.20 298.50 L 691.00 295.70 L 699.90 292.30 L 708.80 288.50 L 726.20 280.30 L 734.30 277.00 L 742.40 274.40 L 750.40 272.40 L 758.30 270.90 L 766.50 270.00 L 774.50 269.50 L 782.50 269.50 L 790.50 270.10 L 798.40 271.10 L 806.30 272.60 L 814.00 274.50 L 821.70 276.80 L 829.40 279.50 L 837.00 282.70 L 846.30 287.20 L 855.30 292.20 L 864.30 297.80 L 873.10 304.00 L 881.50 310.60 L 889.80 317.70 L 897.70 325.20 L 905.50 333.20 L 912.90 341.50 L 920.00 350.10 L 926.80 359.10 L 933.20 368.40 L 939.30 378.00 L 944.90 387.80 L 950.20 397.80 L 955.10 407.90 L 959.50 418.30 L 963.50 428.80 L 967.00 439.30 L 970.00 449.90 L 972.50 460.60 L 974.50 471.30 L 976.00 481.90 L 976.90 492.40 L 977.20 503.10 L 977.00 513.50 L 976.10 523.70 L 974.60 533.80 L 967.90 569.10 L 962.10 593.00 L 958.60 604.90 L 952.30 622.60 L 944.60 640.20 L 940.10 648.70 L 935.20 657.10 L 929.70 665.40 L 923.60 673.60 L 917.20 681.40 L 910.00 689.10 L 902.20 696.70 L 893.50 704.20 L 886.50 709.70 L 878.90 715.10 L 870.60 720.40 L 861.70 725.60 L 852.20 730.70 L 842.80 735.30 L 832.60 739.70 L 821.70 744.00 L 810.00 748.10 L 797.30 752.10 L 342.40 752.10 Z" fill="#000000" fill-rule="nonzero" node-id="155" stroke="none" target-height="543.89996" target-width="924.5" target-x="52.7" target-y="208.2"></path></clipPath><clipPath id="XMLID_3_" node-id="51"><path d="M 183.90 785.50 L 215.20 785.50 L 215.30 781.30 L 216.70 775.40 L 218.30 772.20 L 219.70 770.30 L 221.50 768.50 L 223.90 766.70 L 226.40 765.40 L 229.60 764.40 L 240.00 762.50 L 245.80 760.60 L 248.70 759.10 L 251.30 757.20 L 254.10 754.10 L 255.80 750.10 L 256.00 747.80 L 255.80 745.00 L 183.90 745.00 L 183.90 785.50 Z" fill="#000000" fill-rule="nonzero" node-id="159" stroke="none" target-height="40.5" target-width="72.100006" target-x="183.9" target-y="745"></path></clipPath><clipPath id="XMLID_4_" node-id="67"><path d="M 346.30 352.60 L 328.50 347.10 L 327.70 347.10 L 326.20 347.80 L 314.20 386.60 L 286.60 386.60 L 283.80 386.90 L 279.40 386.90 L 278.90 386.70 L 274.80 381.20 L 272.70 380.10 L 245.80 379.90 L 244.20 380.10 L 241.40 381.40 L 236.00 386.80 L 226.50 386.80 L 224.00 387.40 L 221.80 388.50 L 219.90 390.10 L 218.20 392.20 L 189.60 436.00 L 188.60 437.90 L 187.60 442.10 L 188.10 446.20 L 190.00 450.00 L 193.20 452.90 L 195.20 454.00 L 199.30 454.90 L 203.40 454.40 L 207.20 452.50 L 210.20 449.40 L 221.50 431.90 L 222.60 468.80 L 294.10 466.40 L 294.30 411.10 L 320.00 411.10 L 324.40 410.80 L 326.70 410.10 L 328.80 408.90 L 330.60 407.20 L 332.10 405.30 L 333.10 402.90 L 347.70 355.30 L 347.60 353.60 L 346.30 352.60 Z" fill="#000000" fill-rule="nonzero" node-id="163" stroke="none" target-height="121.69998" target-width="160.1" target-x="187.6" target-y="347.1"></path></clipPath><clipPath id="SVGID_1_" node-id="78"><path d="M 222.40 468.40 L 214.20 703.30 L 262.90 703.30 L 261.90 497.70 L 292.80 703.30 L 332.30 703.30 L 294.30 465.90 Z" fill="#000000" fill-rule="nonzero" node-id="167" stroke="none" target-height="237.4" target-width="118.09999" target-x="214.2" target-y="465.9"></path></clipPath><clipPath id="XMLID_5_" node-id="85"><path d="M 329.30 713.70 L 296.20 713.70 L 294.70 723.20 L 292.70 728.90 L 291.20 731.20 L 290.00 732.50 L 284.30 735.40 L 283.10 736.70 L 281.60 739.00 L 279.50 744.70 L 278.10 754.20 L 332.30 754.20 L 329.30 713.70 Z" fill="#000000" fill-rule="nonzero" node-id="171" stroke="none" target-height="40.5" target-width="54.19998" target-x="278.1" target-y="713.7"></path></clipPath><clipPath id="XMLID_6_" node-id="109"><path d="M 795.80 371.40 L 868.70 371.40 L 871.70 371.70 L 874.50 372.40 L 877.00 373.60 L 879.40 375.30 L 881.30 377.20 L 883.00 379.60 L 884.20 382.10 L 884.90 384.90 L 885.20 387.90 L 885.20 425.30 L 885.50 428.60 L 886.50 431.60 L 888.00 434.50 L 890.00 437.00 L 907.40 454.40 L 909.50 456.90 L 911.00 459.70 L 911.90 462.80 L 912.20 466.00 L 912.20 581.50 L 911.90 584.70 L 911.00 587.80 L 909.50 590.60 L 907.40 593.10 L 893.30 607.20 L 891.30 609.70 L 889.70 612.60 L 888.80 615.60 L 888.50 618.90 L 888.50 737.70 L 888.20 740.70 L 887.50 743.50 L 886.20 746.00 L 884.60 748.30 L 882.60 750.30 L 880.30 751.90 L 877.80 753.20 L 875.00 753.90 L 872.00 754.20 L 684.60 754.20 L 681.50 753.90 L 678.80 753.20 L 676.20 751.90 L 673.90 750.30 L 672.00 748.30 L 670.30 746.00 L 669.10 743.50 L 668.30 740.70 L 668.10 737.70 L 668.10 387.90 L 668.30 384.90 L 669.10 382.10 L 670.30 379.60 L 672.00 377.20 L 673.90 375.30 L 676.20 373.60 L 678.80 372.40 L 681.50 371.70 L 684.60 371.40 L 795.80 371.40 Z" fill="#000000" fill-rule="nonzero" node-id="175" stroke="none" target-height="382.80002" target-width="244.10004" target-x="668.1" target-y="371.4"></path></clipPath><clipPath id="XMLID_7_" node-id="117"><path d="M 639.10 371.40 L 712.10 371.40 L 715.10 371.70 L 717.90 372.40 L 720.40 373.60 L 722.70 375.30 L 724.70 377.20 L 726.30 379.60 L 727.50 382.10 L 728.30 384.90 L 728.60 387.90 L 728.60 425.30 L 728.90 428.60 L 729.80 431.60 L 731.30 434.50 L 733.40 437.00 L 750.80 454.40 L 752.80 456.90 L 754.40 459.70 L 755.30 462.80 L 755.60 466.00 L 755.60 581.50 L 755.30 584.70 L 754.40 587.80 L 752.80 590.60 L 750.80 593.10 L 736.70 607.20 L 734.60 609.70 L 733.10 612.60 L 732.20 615.60 L 731.90 618.90 L 731.90 737.70 L 731.60 740.70 L 730.80 743.50 L 729.60 746.00 L 728.00 748.30 L 726.00 750.30 L 723.70 751.90 L 721.10 753.20 L 718.40 753.90 L 715.40 754.20 L 527.90 754.20 L 524.90 753.90 L 522.20 753.20 L 519.60 751.90 L 517.30 750.30 L 515.30 748.30 L 513.70 746.00 L 512.50 743.50 L 511.70 740.70 L 511.40 737.70 L 511.40 387.90 L 511.70 384.90 L 512.50 382.10 L 513.70 379.60 L 515.30 377.20 L 517.30 375.30 L 519.60 373.60 L 522.20 372.40 L 524.90 371.70 L 527.90 371.40 L 639.10 371.40 Z" fill="#000000" fill-rule="nonzero" node-id="179" stroke="none" target-height="382.80002" target-width="244.19998" target-x="511.4" target-y="371.4"></path></clipPath></defs><g node-id="513"><g node-id="520"><path d="M 342.40 752.10 L 330.80 750.50 L 311.10 747.00 L 284.40 740.70 L 258.30 733.00 L 235.60 724.90 L 224.00 720.30 L 212.30 715.10 L 200.20 709.30 L 188.40 703.10 L 176.50 696.30 L 164.70 688.80 L 156.10 682.90 L 139.20 670.00 L 131.00 662.90 L 123.10 655.60 L 115.50 647.80 L 108.10 639.60 L 101.00 631.00 L 94.40 622.00 L 88.10 612.60 L 82.20 602.70 L 76.70 592.30 L 72.70 583.90 L 69.10 575.10 L 65.70 565.90 L 62.70 556.40 L 60.00 546.40 L 57.80 536.50 L 55.90 526.20 L 54.50 515.50 L 53.40 504.30 L 52.80 492.60 L 52.70 481.20 L 53.00 469.30 L 53.90 456.80 L 55.20 443.80 L 57.10 430.20 L 60.00 414.20 L 63.10 399.20 L 66.50 385.10 L 70.10 372.10 L 74.00 359.90 L 78.50 347.30 L 83.20 335.60 L 88.00 324.80 L 93.10 314.70 L 98.30 305.40 L 104.10 296.00 L 110.00 287.30 L 116.00 279.20 L 122.10 271.80 L 128.40 265.00 L 135.10 258.40 L 141.90 252.20 L 148.80 246.60 L 155.70 241.60 L 162.70 236.90 L 171.90 231.60 L 181.20 226.90 L 190.50 222.80 L 199.90 219.30 L 209.50 216.30 L 219.00 213.80 L 228.60 211.80 L 238.10 210.30 L 257.30 208.50 L 276.10 208.20 L 288.50 208.70 L 300.50 209.60 L 312.00 211.00 L 334.40 214.80 L 359.30 220.80 L 371.90 224.50 L 392.70 231.50 L 403.40 235.80 L 415.90 241.50 L 458.60 262.60 L 486.10 275.40 L 509.90 285.20 L 522.10 289.70 L 534.70 293.80 L 547.70 297.60 L 560.80 300.90 L 574.20 303.60 L 587.90 305.80 L 598.20 306.90 L 608.70 307.60 L 619.30 307.80 L 630.00 307.50 L 640.70 306.80 L 651.50 305.40 L 662.40 303.50 L 673.50 301.00 L 682.20 298.50 L 691.00 295.70 L 699.90 292.30 L 708.80 288.50 L 726.20 280.30 L 734.30 277.00 L 742.40 274.40 L 750.40 272.40 L 758.30 270.90 L 766.50 270.00 L 774.50 269.50 L 782.50 269.50 L 790.50 270.10 L 798.40 271.10 L 806.30 272.60 L 814.00 274.50 L 821.70 276.80 L 829.40 279.50 L 837.00 282.70 L 846.30 287.20 L 855.30 292.20 L 864.30 297.80 L 873.10 304.00 L 881.50 310.60 L 889.80 317.70 L 897.70 325.20 L 905.50 333.20 L 912.90 341.50 L 920.00 350.10 L 926.80 359.10 L 933.20 368.40 L 939.30 378.00 L 944.90 387.80 L 950.20 397.80 L 955.10 407.90 L 959.50 418.30 L 963.50 428.80 L 967.00 439.30 L 970.00 449.90 L 972.50 460.60 L 974.50 471.30 L 976.00 481.90 L 976.90 492.40 L 977.20 503.10 L 977.00 513.50 L 976.10 523.70 L 974.60 533.80 L 967.90 569.10 L 962.10 593.00 L 958.60 604.90 L 952.30 622.60 L 944.60 640.20 L 940.10 648.70 L 935.20 657.10 L 929.70 665.40 L 923.60 673.60 L 917.20 681.40 L 910.00 689.10 L 902.20 696.70 L 893.50 704.20 L 886.50 709.70 L 878.90 715.10 L 870.60 720.40 L 861.70 725.60 L 852.20 730.70 L 842.80 735.30 L 832.60 739.70 L 821.70 744.00 L 810.00 748.10 L 797.30 752.10 L 342.40 752.10 Z" fill="#ffebe5" fill-rule="nonzero" group-id="1,8" node-id="189" stroke="none" target-height="543.89996" target-width="924.5" target-x="52.7" target-y="208.2"></path></g><g node-id="521"><g clip-path="url(#XMLID_2_)" group-id="1,9" node-id="192"><path d="M 125.60 378.60 L 113.60 378.40 L 101.20 377.80 L 88.40 376.70 L 73.40 375.00 L 59.70 372.90 L 35.30 368.00 L 16.20 363.30 L -0.90 358.10 L -0.30 356.40 L 16.70 361.50 L 35.70 366.30 L 60.10 371.10 L 73.70 373.20 L 88.60 374.90 L 107.90 376.40 L 129.20 376.80 L 140.20 376.40 L 151.60 375.70 L 163.00 374.60 L 174.60 372.90 L 186.30 370.60 L 195.00 368.60 L 212.40 363.40 L 221.00 360.20 L 229.40 356.60 L 237.70 352.60 L 245.90 348.10 L 254.00 343.20 L 261.80 337.70 L 269.20 331.90 L 276.30 325.70 L 283.00 319.20 L 289.50 312.20 L 295.50 304.80 L 301.30 297.00 L 306.70 288.70 L 311.80 279.90 L 316.60 270.70 L 321.20 260.80 L 325.40 250.30 L 329.20 239.20 L 332.60 227.60 L 335.70 215.30 L 338.40 202.40 L 340.60 188.80 L 342.40 174.40 L 343.70 159.30 L 345.50 159.40 L 344.20 174.60 L 342.40 189.10 L 340.10 202.80 L 337.40 215.80 L 334.40 228.20 L 330.90 239.90 L 327.00 251.00 L 322.80 261.60 L 318.20 271.60 L 313.40 280.90 L 308.20 289.70 L 302.70 298.10 L 296.90 306.00 L 290.80 313.40 L 284.30 320.50 L 277.50 327.10 L 270.40 333.30 L 262.90 339.20 L 255.00 344.70 L 246.00 350.20 L 236.60 355.20 L 226.80 359.80 L 216.40 363.90 L 205.90 367.50 L 194.90 370.60 L 183.50 373.20 L 171.50 375.30 L 160.60 376.70 L 149.40 377.80 L 137.70 378.40 L 125.60 378.60 Z" fill="#ffffff" fill-rule="nonzero" group-id="1,9" node-id="194" stroke="none" target-height="219.3" target-width="346.4" target-x="-0.9" target-y="159.3"></path></g></g><g node-id="522"><g clip-path="url(#XMLID_2_)" group-id="1,10" node-id="197"><path d="M 163.90 568.50 L 157.60 568.40 L 148.30 567.60 L 138.80 566.20 L 129.10 564.20 L 119.30 561.40 L 109.70 558.10 L 100.00 554.20 L 90.00 549.50 L 79.90 544.10 L 69.50 537.90 L 58.90 530.90 L 48.10 523.00 L 37.60 514.70 L 27.00 505.70 L 16.30 495.80 L 5.80 485.40 L -3.60 475.50 L -19.90 456.90 L -32.10 441.50 L -42.60 427.10 L -41.10 426.10 L -25.30 447.30 L -11.00 464.50 L 7.10 484.10 L 17.60 494.50 L 27.80 503.90 L 39.40 513.80 L 47.40 520.20 L 64.90 532.70 L 74.10 538.50 L 83.70 544.00 L 93.60 549.10 L 108.90 555.80 L 124.70 561.10 L 132.80 563.20 L 141.00 564.80 L 149.30 565.90 L 157.70 566.60 L 166.70 566.70 L 175.60 566.20 L 184.40 565.10 L 193.20 563.40 L 201.80 561.10 L 210.40 558.10 L 219.00 554.60 L 227.60 550.30 L 235.50 545.80 L 243.50 540.60 L 251.40 534.80 L 259.40 528.30 L 267.30 521.10 L 275.30 513.20 L 283.30 504.50 L 311.20 470.80 L 330.80 447.90 L 350.10 426.10 L 365.00 409.90 L 394.00 379.80 L 422.70 351.80 L 450.90 326.30 L 478.60 303.10 L 492.30 292.50 L 505.60 282.70 L 518.50 273.60 L 530.90 265.40 L 542.80 258.00 L 554.30 251.40 L 565.30 245.40 L 575.90 240.20 L 586.00 235.60 L 597.10 231.10 L 607.50 227.40 L 617.50 224.40 L 627.00 222.10 L 636.10 220.30 L 644.70 219.20 L 652.60 218.60 L 660.20 218.50 L 667.30 218.90 L 674.20 219.80 L 680.80 221.00 L 687.10 222.70 L 693.10 224.80 L 692.40 226.50 L 686.40 224.40 L 680.10 222.80 L 673.60 221.50 L 666.80 220.70 L 659.70 220.30 L 652.30 220.40 L 644.50 221.00 L 636.00 222.20 L 627.00 223.90 L 617.70 226.20 L 607.90 229.20 L 597.70 232.80 L 586.90 237.20 L 574.90 242.60 L 562.40 249.00 L 549.30 256.30 L 535.60 264.60 L 521.30 273.90 L 507.80 283.20 L 493.90 293.50 L 479.50 304.70 L 464.70 316.80 L 449.30 330.00 L 434.70 343.10 L 419.70 357.00 L 404.40 371.90 L 388.70 387.70 L 372.50 404.50 L 353.30 425.30 L 333.50 447.50 L 313.40 471.10 L 285.00 505.30 L 277.30 513.80 L 269.60 521.50 L 261.90 528.50 L 254.20 534.90 L 246.60 540.60 L 238.90 545.80 L 231.30 550.40 L 223.00 554.70 L 214.70 558.40 L 206.40 561.50 L 198.00 564.10 L 189.60 566.00 L 181.20 567.40 L 172.60 568.30 L 163.90 568.50 Z" fill="#ffffff" fill-rule="nonzero" group-id="1,10" node-id="199" stroke="none" target-height="350" target-width="735.69995" target-x="-42.6" target-y="218.5"></path></g></g><g node-id="523"><g clip-path="url(#XMLID_2_)" group-id="1,11" node-id="202"><path d="M 97.40 738.10 L 96.00 736.90 L 104.10 727.70 L 118.30 713.20 L 134.90 698.00 L 151.20 684.80 L 159.90 678.30 L 179.70 665.10 L 191.20 658.20 L 202.80 652.10 L 214.30 646.50 L 225.70 641.60 L 237.50 637.20 L 249.20 633.40 L 260.80 630.30 L 272.40 627.80 L 284.20 625.80 L 295.90 624.50 L 307.60 623.80 L 319.20 623.80 L 330.90 624.30 L 342.50 625.50 L 354.00 627.20 L 365.50 629.60 L 377.10 632.60 L 395.20 638.30 L 401.60 639.80 L 407.80 640.80 L 413.90 641.30 L 419.80 641.30 L 425.60 640.80 L 431.40 639.90 L 437.00 638.50 L 442.60 636.60 L 448.10 634.30 L 453.60 631.40 L 459.00 628.00 L 464.30 624.00 L 469.70 619.40 L 475.00 614.20 L 480.30 608.40 L 485.60 601.80 L 491.00 594.40 L 496.50 585.70 L 502.10 576.10 L 507.60 565.40 L 513.00 553.70 L 518.40 540.70 L 523.20 528.00 L 527.90 514.40 L 532.50 499.60 L 537.00 483.70 L 544.80 451.40 L 548.60 433.70 L 555.70 394.00 L 558.80 373.80 L 561.50 354.00 L 565.50 318.10 L 569.10 276.70 L 570.40 253.10 L 572.30 253.20 L 570.90 276.80 L 567.30 318.30 L 563.30 354.20 L 557.50 394.30 L 553.90 415.30 L 550.30 434.10 L 542.70 468.50 L 534.20 500.10 L 529.60 514.90 L 524.90 528.70 L 520.10 541.40 L 514.70 554.40 L 509.20 566.30 L 503.60 577.10 L 498.00 586.80 L 492.40 595.50 L 487.00 603.00 L 481.60 609.60 L 476.20 615.60 L 470.80 620.80 L 465.40 625.40 L 460.00 629.50 L 454.50 633.00 L 448.90 635.90 L 443.20 638.30 L 437.50 640.20 L 431.70 641.70 L 425.80 642.60 L 419.90 643.10 L 413.90 643.10 L 407.70 642.60 L 401.30 641.60 L 394.80 640.10 L 377.20 634.60 L 366.60 631.70 L 356.30 629.50 L 346.30 627.80 L 336.00 626.60 L 326.00 625.90 L 316.30 625.60 L 306.80 625.80 L 297.20 626.40 L 278.80 628.60 L 270.00 630.20 L 258.30 632.90 L 247.20 636.10 L 236.50 639.60 L 225.90 643.60 L 216.00 647.80 L 197.30 657.00 L 180.70 666.60 L 161.00 679.70 L 143.80 693.00 L 129.30 705.40 L 112.10 721.90 L 105.50 728.90 L 97.40 738.10 Z" fill="#ffffff" fill-rule="nonzero" group-id="1,11" node-id="204" stroke="none" target-height="484.99997" target-width="476.3" target-x="96" target-y="253.1"></path></g></g><g node-id="524"><g clip-path="url(#XMLID_2_)" group-id="1,12" node-id="207"><path d="M 944.00 497.70 L 926.20 497.40 L 909.20 496.80 L 893.10 495.70 L 877.80 494.20 L 862.20 492.20 L 847.50 489.70 L 833.70 486.90 L 820.60 483.80 L 808.20 480.20 L 796.50 476.30 L 785.40 472.10 L 775.00 467.50 L 765.20 462.70 L 756.00 457.50 L 746.80 451.70 L 738.30 445.60 L 730.30 439.20 L 722.90 432.40 L 716.10 425.40 L 709.80 418.00 L 703.90 410.20 L 698.80 402.30 L 694.30 394.40 L 690.30 386.30 L 686.90 378.20 L 684.00 370.20 L 679.60 354.20 L 678.00 346.40 L 675.90 331.10 L 675.00 313.40 L 675.10 303.90 L 676.20 287.70 L 678.70 270.40 L 682.10 254.70 L 684.80 245.30 L 686.60 245.90 L 683.90 255.20 L 680.50 270.80 L 678.00 288.00 L 676.90 304.00 L 676.80 313.40 L 677.70 331.00 L 679.80 346.10 L 681.40 353.80 L 685.80 369.70 L 688.60 377.60 L 692.00 385.50 L 695.90 393.60 L 700.30 401.40 L 705.40 409.10 L 711.20 416.90 L 717.40 424.20 L 724.20 431.20 L 731.50 437.80 L 739.40 444.20 L 747.90 450.30 L 757.00 456.00 L 766.20 461.10 L 775.90 465.90 L 786.20 470.40 L 797.10 474.60 L 808.80 478.50 L 821.10 482.00 L 833.30 485.00 L 846.10 487.60 L 859.60 489.90 L 873.90 491.90 L 889.00 493.50 L 904.80 494.70 L 921.50 495.50 L 939.90 495.80 L 959.20 495.70 L 979.50 495.00 L 1000.80 493.80 L 1023.20 492.00 L 1046.70 489.50 L 1046.90 491.30 L 1024.40 493.70 L 1002.90 495.50 L 982.30 496.70 L 962.70 497.40 L 944.00 497.70 Z" fill="#ffffff" fill-rule="nonzero" group-id="1,12" node-id="209" stroke="none" target-height="252.40001" target-width="371.90002" target-x="675" target-y="245.3"></path></g></g><g clip-path="url(#XMLID_2_)" group-id="1,13" node-id="212"><path d="M 403.60 795.30 L 402.20 794.20 L 409.60 784.50 L 417.50 775.10 L 425.80 765.90 L 434.50 757.10 L 443.70 748.50 L 453.40 740.30 L 463.60 732.30 L 474.20 724.60 L 484.90 717.50 L 495.90 710.60 L 507.50 704.10 L 519.60 697.80 L 532.10 691.80 L 545.20 686.10 L 558.80 680.70 L 573.00 675.50 L 587.70 670.70 L 603.00 666.20 L 618.90 662.10 L 635.40 658.30 L 652.50 654.80 L 670.30 651.70 L 687.60 649.10 L 705.40 646.80 L 723.80 645.00 L 742.70 643.50 L 762.30 642.30 L 782.50 641.60 L 820.70 641.40 L 839.00 641.70 L 874.80 643.30 L 916.10 646.50 L 938.30 648.70 L 977.70 653.80 L 1008.10 658.50 L 1035.00 663.60 L 1034.60 665.40 L 1007.70 660.30 L 994.40 658.10 L 959.30 653.10 L 938.10 650.50 L 915.90 648.30 L 891.40 646.20 L 866.10 644.60 L 838.90 643.50 L 820.70 643.20 L 782.50 643.40 L 764.70 644.00 L 726.90 646.60 L 707.70 648.50 L 688.20 651.00 L 668.20 654.00 L 638.50 659.70 L 608.70 666.90 L 593.90 671.00 L 579.20 675.70 L 564.70 680.70 L 550.30 686.30 L 536.10 692.30 L 522.20 698.80 L 508.60 705.80 L 495.20 713.40 L 484.80 719.80 L 474.60 726.60 L 464.70 733.80 L 455.10 741.40 L 445.60 749.40 L 436.60 757.70 L 427.90 766.40 L 419.50 775.60 L 411.40 785.20 L 403.60 795.30 Z" fill="#ffffff" fill-rule="nonzero" group-id="1,13" node-id="214" stroke="none" target-height="153.89996" target-width="632.8" target-x="402.2" target-y="641.4"></path></g></g><path d="M 969.70 767.80 L 95.40 767.80 L 93.60 767.60 L 92.00 766.90 L 90.60 765.80 L 89.50 764.50 L 88.80 762.80 L 88.60 761.00 L 88.80 759.20 L 89.50 757.60 L 90.60 756.20 L 92.00 755.10 L 93.60 754.40 L 95.40 754.20 L 969.70 754.20 L 971.50 754.40 L 973.10 755.10 L 974.50 756.20 L 975.50 757.60 L 976.20 759.20 L 976.50 761.00 L 976.20 762.80 L 975.50 764.50 L 974.50 765.80 L 973.10 766.90 L 971.50 767.60 L 969.70 767.80 Z" fill="#26205c" fill-rule="nonzero" node-id="218" stroke="none" target-height="13.599976" target-width="887.9" target-x="88.6" target-y="754.2"></path><path d="M 410.30 312.00 L 408.10 319.70 L 405.60 332.50 L 404.60 340.70 L 403.90 352.50 L 404.30 365.60 L 405.10 372.30 L 406.40 379.20 L 408.10 386.10 L 410.30 392.90 L 413.20 399.70 L 415.80 404.70 L 418.70 409.50 L 422.10 414.30 L 426.00 419.10 L 430.20 423.40 L 434.90 427.70 L 440.20 431.70 L 446.10 435.70 L 449.30 428.20 L 451.30 422.30 L 453.20 415.70 L 456.00 402.00 L 457.00 389.60 L 457.00 383.10 L 456.40 376.50 L 455.40 369.60 L 454.20 364.50 L 450.70 354.20 L 448.30 349.00 L 445.50 344.10 L 442.20 339.20 L 438.30 334.20 L 433.80 329.30 L 429.10 324.90 L 423.60 320.50 L 417.40 316.20 L 410.30 312.00 Z" fill="#95ae3a" fill-rule="nonzero" node-id="220" stroke="none" target-height="123.70001" target-width="53.100006" target-x="403.9" target-y="312"></path><path d="M 444.00 398.80 L 446.00 385.50 L 447.40 379.20 L 451.80 363.70 L 457.40 349.50 L 463.40 338.10 L 467.00 332.50 L 470.90 327.20 L 475.30 322.10 L 480.10 317.30 L 485.40 313.00 L 491.10 309.00 L 495.70 306.50 L 500.60 304.20 L 505.80 302.30 L 511.40 300.70 L 515.50 312.60 L 518.30 325.70 L 519.40 336.20 L 519.50 347.90 L 518.10 360.50 L 516.70 366.80 L 514.70 373.20 L 512.00 379.80 L 509.70 384.50 L 503.80 394.00 L 500.10 398.80 L 444.00 398.80 Z" fill="#adcd55" fill-rule="nonzero" node-id="222" stroke="none" target-height="98.099976" target-width="75.5" target-x="444" target-y="300.7"></path><path d="M 447.00 603.10 L 447.50 595.80 L 447.60 590.00 L 446.60 575.70 L 444.70 564.60 L 441.40 552.20 L 436.40 539.20 L 433.30 532.80 L 429.50 526.30 L 425.10 519.80 L 417.50 510.50 L 408.10 501.50 L 403.00 497.30 L 397.40 493.40 L 391.20 489.50 L 384.30 485.80 L 377.50 482.50 L 369.90 479.50 L 361.70 476.70 L 352.70 474.10 L 349.60 482.20 L 345.90 496.00 L 344.30 505.10 L 343.60 511.50 L 343.10 526.00 L 343.50 533.50 L 344.40 541.50 L 346.00 549.90 L 347.50 556.10 L 352.00 569.10 L 355.00 575.80 L 358.30 582.20 L 362.20 588.80 L 366.80 595.50 L 372.00 602.30 L 377.50 608.70 L 383.90 615.10 L 391.00 621.60 L 399.10 628.30 L 407.30 634.30 L 416.50 640.30 L 426.80 646.30 L 438.30 652.30 L 447.00 603.10 Z" fill="#95ae3a" fill-rule="nonzero" node-id="224" stroke="none" target-height="178.19998" target-width="104.5" target-x="343.1" target-y="474.1"></path><path d="M 464.80 454.40 L 455.50 444.10 L 444.90 433.60 L 431.50 421.70 L 424.00 415.80 L 410.50 406.50 L 399.10 400.40 L 393.30 397.80 L 387.40 395.70 L 381.70 394.10 L 372.90 392.80 L 364.40 393.00 L 362.30 400.70 L 361.10 406.90 L 360.20 413.70 L 359.60 422.10 L 359.60 427.90 L 360.60 441.10 L 361.80 447.90 L 363.50 455.00 L 365.90 462.40 L 370.60 473.30 L 373.60 478.90 L 377.10 484.70 L 381.00 490.10 L 385.40 495.50 L 390.50 501.00 L 396.20 506.50 L 402.10 511.60 L 408.90 516.60 L 416.40 521.60 L 424.90 526.60 L 433.30 531.00 L 442.70 535.30 L 453.20 539.50 L 464.80 543.60 L 464.80 454.40 Z" fill="#adcd55" fill-rule="nonzero" node-id="226" stroke="none" target-height="150.79999" target-width="105.19998" target-x="359.6" target-y="392.8"></path><path d="M 444.40 671.30 L 441.20 664.50 L 438.30 659.50 L 434.70 654.20 L 429.70 648.10 L 421.80 640.10 L 416.80 636.00 L 411.50 632.30 L 405.60 628.80 L 398.80 625.40 L 388.10 621.50 L 375.30 618.70 L 368.80 617.90 L 361.70 617.40 L 353.90 617.40 L 345.60 617.90 L 337.50 618.90 L 328.80 620.40 L 319.30 622.60 L 309.10 625.40 L 308.80 628.90 L 308.80 638.20 L 309.40 644.30 L 310.60 651.80 L 313.50 662.30 L 315.70 668.20 L 318.20 673.80 L 321.40 679.70 L 325.30 685.80 L 328.60 690.10 L 336.40 698.70 L 341.10 703.00 L 346.00 707.00 L 351.50 710.80 L 357.60 714.60 L 364.50 718.40 L 371.30 721.60 L 378.90 724.70 L 387.40 727.60 L 396.70 730.30 L 405.90 732.50 L 416.00 734.40 L 427.20 736.00 L 439.40 737.20 L 444.40 671.30 Z" fill="#adcd55" fill-rule="nonzero" node-id="228" stroke="none" target-height="119.79999" target-width="135.6" target-x="308.8" target-y="617.4"></path><g node-id="514"><path d="M 517.10 364.80 L 434.00 373.80 L 431.70 374.80 L 430.00 376.30 L 428.50 378.20 L 426.80 381.40 L 425.10 387.00 L 423.90 395.20 L 423.70 400.30 L 423.80 735.70 L 441.10 737.20 L 517.10 364.80 Z" fill="#607035" fill-opacity="0.51" fill-rule="nonzero" group-id="2" node-id="232" stroke="none" target-height="372.40002" target-width="93.39996" target-x="423.7" target-y="364.8"></path></g><path d="M 479.50 369.00 L 479.00 368.70 L 479.00 368.30 L 483.40 356.70 L 492.90 334.60 L 498.30 324.20 L 501.00 319.80 L 503.70 316.50 L 504.10 316.60 L 504.10 317.30 L 501.80 320.40 L 499.00 324.90 L 493.70 335.40 L 488.50 346.90 L 479.90 368.70 L 479.50 369.00 Z" fill="#607035" fill-rule="nonzero" node-id="235" stroke="none" target-height="52.5" target-width="25.100006" target-x="479" target-y="316.5"></path><path d="M 484.50 355.90 L 482.00 353.40 L 480.30 351.00 L 479.10 348.70 L 477.80 345.00 L 477.20 341.50 L 477.40 335.10 L 478.40 330.50 L 479.30 328.50 L 479.90 328.80 L 479.90 329.10 L 478.90 332.70 L 478.10 338.10 L 478.20 341.30 L 478.80 344.70 L 480.00 348.20 L 481.20 350.50 L 484.80 355.00 L 484.90 355.70 L 484.50 355.90 Z" fill="#607035" fill-rule="nonzero" node-id="237" stroke="none" target-height="27.399994" target-width="7.6999817" target-x="477.2" target-y="328.5"></path><path d="M 481.30 364.80 L 480.70 364.60 L 480.50 364.30 L 481.10 363.80 L 486.70 363.30 L 490.70 362.40 L 496.60 360.30 L 503.10 356.60 L 510.00 350.80 L 510.40 351.00 L 510.40 351.70 L 504.20 357.10 L 501.20 359.00 L 496.50 361.40 L 492.30 363.00 L 488.20 364.00 L 481.30 364.80 Z" fill="#607035" fill-rule="nonzero" node-id="239" stroke="none" target-height="14" target-width="29.899994" target-x="480.5" target-y="350.8"></path><path d="M 433.50 384.20 L 433.00 383.80 L 415.10 323.90 L 415.40 323.30 L 416.00 323.60 L 434.00 383.50 L 433.90 383.90 L 433.50 384.20 Z" fill="#607035" fill-rule="nonzero" node-id="241" stroke="none" target-height="60.900024" target-width="18.899994" target-x="415.1" target-y="323.3"></path><path d="M 422.90 350.20 L 419.30 350.00 L 416.60 349.30 L 414.30 348.40 L 412.60 347.30 L 410.50 345.30 L 409.80 343.80 L 410.40 343.50 L 412.10 345.60 L 415.00 347.60 L 417.30 348.50 L 419.90 349.10 L 423.30 349.20 L 423.80 349.70 L 423.70 350.10 L 422.90 350.20 Z" fill="#607035" fill-rule="nonzero" node-id="243" stroke="none" target-height="6.700012" target-width="14" target-x="409.8" target-y="343.5"></path><path d="M 429.80 371.90 L 429.30 371.40 L 429.50 371.00 L 435.70 363.10 L 439.10 357.00 L 440.80 351.50 L 440.80 347.10 L 441.30 346.50 L 441.80 347.00 L 441.80 351.50 L 440.10 357.20 L 438.60 360.40 L 435.00 366.00 L 431.80 370.00 L 429.80 371.90 Z" fill="#607035" fill-rule="nonzero" node-id="245" stroke="none" target-height="25.399994" target-width="12.5" target-x="429.3" target-y="346.5"></path><path d="M 424.50 477.60 L 417.00 468.70 L 398.60 443.40 L 373.70 406.90 L 373.90 406.20 L 374.50 406.30 L 390.20 429.40 L 408.90 456.20 L 417.80 468.10 L 424.90 476.80 L 425.00 477.20 L 424.50 477.60 Z" fill="#607035" fill-rule="nonzero" node-id="247" stroke="none" target-height="71.399994" target-width="51.299988" target-x="373.7" target-y="406.2"></path><path d="M 389.20 438.80 L 382.10 438.10 L 374.80 435.80 L 371.40 434.20 L 366.50 431.00 L 364.70 429.50 L 364.70 428.80 L 365.00 428.60 L 369.90 432.20 L 373.60 434.20 L 379.40 436.40 L 386.60 437.70 L 395.60 437.40 L 395.80 437.70 L 395.40 438.30 L 389.20 438.80 Z" fill="#607035" fill-rule="nonzero" node-id="249" stroke="none" target-height="10.199982" target-width="31.099976" target-x="364.7" target-y="428.6"></path><path d="M 401.10 446.60 L 400.60 446.10 L 400.70 445.80 L 403.80 440.00 L 404.80 437.10 L 405.70 432.60 L 405.90 428.40 L 405.80 424.40 L 404.70 417.70 L 403.40 413.40 L 403.70 412.80 L 404.30 413.00 L 405.00 415.20 L 406.30 420.70 L 406.90 428.50 L 406.60 432.80 L 405.70 437.40 L 404.70 440.40 L 403.30 443.40 L 401.50 446.40 L 401.10 446.60 Z" fill="#607035" fill-rule="nonzero" node-id="251" stroke="none" target-height="33.80002" target-width="6.299988" target-x="400.6" target-y="412.8"></path><path d="M 405.70 472.50 L 397.20 471.90 L 388.70 469.90 L 384.90 468.40 L 379.50 465.60 L 377.60 464.30 L 377.40 463.90 L 377.90 463.40 L 385.10 467.40 L 388.70 468.80 L 396.70 470.80 L 404.80 471.50 L 409.00 471.40 L 419.40 470.10 L 419.60 470.50 L 419.20 471.10 L 414.30 471.90 L 405.70 472.50 Z" fill="#607035" fill-rule="nonzero" node-id="253" stroke="none" target-height="9.100006" target-width="42.200012" target-x="377.4" target-y="463.4"></path><path d="M 424.50 597.50 L 418.10 592.50 L 412.30 587.20 L 406.80 581.50 L 397.00 569.40 L 388.50 556.50 L 381.40 543.80 L 376.80 534.30 L 373.00 525.60 L 367.30 510.30 L 362.80 495.60 L 363.20 495.00 L 363.80 495.30 L 368.20 510.00 L 374.00 525.30 L 377.70 533.90 L 382.30 543.30 L 387.50 552.80 L 393.40 562.40 L 402.50 574.80 L 407.50 580.80 L 412.90 586.50 L 418.70 591.70 L 424.80 596.60 L 424.90 597.30 L 424.50 597.50 Z" fill="#607035" fill-rule="nonzero" node-id="255" stroke="none" target-height="102.5" target-width="62.100006" target-x="362.8" target-y="495"></path><path d="M 375.80 531.60 L 375.30 531.00 L 379.20 527.40 L 380.60 525.40 L 382.20 522.00 L 384.20 514.90 L 384.70 511.70 L 385.00 504.20 L 385.50 503.70 L 386.00 504.10 L 385.70 512.10 L 384.30 519.10 L 383.10 522.70 L 381.30 526.00 L 378.10 529.90 L 375.80 531.60 Z" fill="#607035" fill-rule="nonzero" node-id="257" stroke="none" target-height="27.899963" target-width="10.700012" target-x="375.3" target-y="503.7"></path><path d="M 385.00 550.10 L 372.50 548.60 L 368.00 547.70 L 360.00 545.30 L 353.70 542.00 L 351.50 540.20 L 349.10 537.00 L 348.60 535.60 L 349.10 535.00 L 349.40 535.10 L 350.90 537.90 L 352.50 539.60 L 354.60 541.30 L 360.80 544.50 L 368.50 546.80 L 372.90 547.70 L 385.00 549.10 L 385.50 549.60 L 385.00 550.10 Z" fill="#607035" fill-rule="nonzero" node-id="259" stroke="none" target-height="15.099976" target-width="36.899994" target-x="348.6" target-y="535"></path><path d="M 401.10 574.50 L 400.70 574.30 L 400.80 573.60 L 404.30 570.90 L 409.80 565.60 L 414.20 559.00 L 416.00 555.20 L 417.20 551.60 L 418.50 544.50 L 418.60 537.20 L 417.60 531.20 L 417.90 530.60 L 418.60 530.90 L 419.40 535.30 L 419.60 542.20 L 419.30 546.50 L 418.40 550.90 L 416.80 555.70 L 413.60 562.10 L 411.20 565.30 L 408.60 568.40 L 405.30 571.40 L 401.10 574.50 Z" fill="#607035" fill-rule="nonzero" node-id="261" stroke="none" target-height="43.900024" target-width="18.899994" target-x="400.7" target-y="530.6"></path><path d="M 396.90 589.50 L 388.80 588.70 L 385.50 587.80 L 380.80 586.10 L 377.10 584.30 L 374.00 582.30 L 370.20 579.00 L 370.10 578.70 L 370.60 578.20 L 374.70 581.60 L 377.90 583.60 L 381.50 585.30 L 386.20 587.00 L 389.50 587.80 L 397.60 588.40 L 401.90 588.20 L 412.40 586.00 L 412.60 586.60 L 412.30 586.90 L 406.60 588.40 L 401.50 589.20 L 396.90 589.50 Z" fill="#607035" fill-rule="nonzero" node-id="263" stroke="none" target-height="11.299988" target-width="42.5" target-x="370.1" target-y="578.2"></path><path d="M 429.20 695.40 L 417.80 687.50 L 410.80 683.40 L 394.70 674.70 L 368.50 662.00 L 352.00 654.50 L 324.90 642.80 L 324.70 642.20 L 324.90 641.90 L 338.70 647.60 L 368.90 661.10 L 395.20 673.90 L 411.40 682.60 L 418.30 686.70 L 424.70 690.90 L 429.50 694.50 L 429.60 695.20 L 429.20 695.40 Z" fill="#607035" fill-rule="nonzero" node-id="265" stroke="none" target-height="53.5" target-width="104.899994" target-x="324.7" target-y="641.9"></path><path d="M 368.10 662.20 L 367.60 661.60 L 368.20 656.70 L 368.10 652.40 L 367.40 648.50 L 366.30 644.70 L 364.80 641.30 L 363.00 638.30 L 359.90 634.20 L 356.90 631.00 L 353.70 628.30 L 348.90 625.10 L 348.70 624.40 L 349.00 624.20 L 351.90 625.80 L 357.60 630.30 L 360.70 633.60 L 363.90 637.80 L 365.70 640.90 L 367.20 644.40 L 369.00 651.20 L 369.10 658.00 L 368.60 661.80 L 368.10 662.20 Z" fill="#607035" fill-rule="nonzero" node-id="267" stroke="none" target-height="38" target-width="20.399994" target-x="348.7" target-y="624.2"></path><path d="M 366.90 691.80 L 359.80 691.20 L 352.60 689.30 L 349.30 687.90 L 344.50 685.20 L 342.70 683.90 L 342.60 683.60 L 343.00 683.00 L 347.60 685.90 L 354.80 689.00 L 359.70 690.20 L 363.10 690.60 L 371.20 690.60 L 375.40 689.90 L 380.00 688.70 L 385.00 686.90 L 389.90 684.60 L 395.10 681.50 L 401.20 677.20 L 401.60 677.80 L 401.40 678.10 L 396.90 681.50 L 392.70 684.20 L 384.50 688.20 L 377.10 690.60 L 371.70 691.50 L 366.90 691.80 Z" fill="#607035" fill-rule="nonzero" node-id="269" stroke="none" target-height="14.599976" target-width="59" target-x="342.6" target-y="677.2"></path><path d="M 425.90 691.90 L 425.40 691.40 L 424.30 684.00 L 422.70 677.50 L 420.80 671.60 L 418.30 665.90 L 415.80 660.90 L 413.10 656.60 L 407.30 649.00 L 400.80 642.40 L 395.10 638.00 L 394.90 637.30 L 395.20 637.10 L 398.50 639.20 L 401.40 641.60 L 408.00 648.30 L 413.90 656.00 L 416.60 660.40 L 419.20 665.40 L 421.70 671.20 L 423.70 677.20 L 425.30 683.80 L 426.40 691.30 L 425.90 691.90 Z" fill="#607035" fill-rule="nonzero" node-id="271" stroke="none" target-height="54.80005" target-width="31.5" target-x="394.9" target-y="637.1"></path><g node-id="515"><path d="M 56.60 373.80 L 144.00 373.80 L 144.80 381.40 L 147.10 394.30 L 149.20 402.80 L 151.90 411.80 L 155.60 422.10 L 161.70 436.40 L 165.60 444.20 L 169.90 451.90 L 174.70 459.80 L 180.30 467.90 L 88.90 467.90 L 84.60 462.60 L 78.00 452.60 L 71.60 440.10 L 66.50 427.10 L 62.20 412.20 L 60.20 403.40 L 58.60 394.50 L 57.40 384.70 L 56.60 373.80 Z" fill="#5a78ec" fill-rule="nonzero" group-id="3" node-id="275" stroke="none" target-height="94.100006" target-width="123.700005" target-x="56.6" target-y="373.8"></path><path d="M 76.30 368.80 L 126.60 368.80 L 126.60 377.30 L 76.30 377.30 Z" fill="#ffffff" fill-rule="nonzero" group-id="3" node-id="277" stroke="none" target-height="8.5" target-width="50.299995" target-x="76.3" target-y="368.8"></path><path d="M 99.90 406.00 L 99.70 407.30 L 98.50 409.40 L 96.40 410.60 L 95.10 410.80 L 92.70 410.20 L 90.90 408.40 L 90.50 407.30 L 90.30 406.00 L 90.90 403.60 L 92.70 401.90 L 95.10 401.20 L 96.40 401.40 L 98.50 402.60 L 99.70 404.70 L 99.90 406.00 Z" fill="#ffffff" fill-rule="nonzero" group-id="3" node-id="279" stroke="none" target-height="9.599976" target-width="9.599998" target-x="90.3" target-y="401.2"></path><path d="M 127.90 406.00 L 127.70 407.30 L 126.50 409.40 L 124.40 410.60 L 123.10 410.80 L 121.80 410.60 L 119.70 409.40 L 118.50 407.30 L 118.30 406.00 L 118.50 404.70 L 119.70 402.60 L 121.80 401.40 L 123.10 401.20 L 124.40 401.40 L 126.50 402.60 L 127.70 404.70 L 127.90 406.00 Z" fill="#ffffff" fill-rule="nonzero" group-id="3" node-id="281" stroke="none" target-height="9.599976" target-width="9.599998" target-x="118.3" target-y="401.2"></path><path d="M 110.60 428.40 L 105.20 428.10 L 100.80 427.30 L 97.20 426.10 L 93.70 424.40 L 90.90 422.60 L 86.70 418.30 L 84.00 414.00 L 82.00 408.50 L 81.60 406.10 L 81.80 405.30 L 82.50 405.00 L 83.30 405.30 L 84.60 410.60 L 86.90 415.40 L 90.20 419.40 L 92.30 421.20 L 94.90 422.90 L 98.10 424.40 L 101.50 425.40 L 105.60 426.10 L 112.40 426.40 L 116.50 426.00 L 120.10 425.30 L 123.10 424.20 L 125.80 422.90 L 128.00 421.30 L 129.90 419.40 L 131.50 417.00 L 132.70 414.60 L 133.80 410.10 L 133.90 405.30 L 134.10 404.50 L 134.70 404.10 L 135.50 404.30 L 135.90 405.00 L 136.00 406.60 L 135.30 412.80 L 133.30 418.00 L 131.40 420.70 L 129.30 422.80 L 126.90 424.60 L 124.00 426.00 L 120.70 427.20 L 116.90 428.00 L 110.60 428.40 Z" fill="#ffffff" fill-rule="nonzero" group-id="3" node-id="283" stroke="none" target-height="24.299988" target-width="54.4" target-x="81.6" target-y="404.1"></path></g><g node-id="516"><g node-id="526"><g node-id="533"><path d="M 255.30 713.70 L 224.00 713.70 L 223.90 717.90 L 222.50 723.80 L 220.90 727.00 L 219.60 728.90 L 217.70 730.70 L 215.40 732.50 L 212.90 733.80 L 209.60 734.80 L 199.20 736.70 L 193.50 738.70 L 190.60 740.10 L 187.90 742.00 L 185.10 745.20 L 183.50 749.10 L 183.30 751.50 L 183.50 754.20 L 255.30 754.20 L 255.30 713.70 Z" fill="#26205c" fill-rule="nonzero" group-id="4,14,21" node-id="292" stroke="none" target-height="40.5" target-width="72" target-x="183.3" target-y="713.7"></path></g><g clip-path="url(#XMLID_3_)" group-id="4,14,22" node-id="295"><path d="M 275.40 750.70 L 163.90 750.70 L 163.90 748.50 L 275.40 748.50 Z" fill="#ffffff" fill-rule="nonzero" group-id="4,14,22" node-id="297" stroke="none" target-height="2.2000122" target-width="111.5" target-x="163.9" target-y="748.5"></path></g></g><path d="M 227.50 703.30 L 226.20 713.70 L 254.30 713.70 L 254.40 703.30 Z" fill="#ffb7b7" fill-rule="nonzero" group-id="4" node-id="301" stroke="none" target-height="10.400024" target-width="28.199997" target-x="226.2" target-y="703.3"></path><path d="M 325.10 703.30 L 326.40 713.70 L 298.40 713.70 L 298.20 703.30 Z" fill="#ffb7b7" fill-rule="nonzero" group-id="4" node-id="303" stroke="none" target-height="10.400024" target-width="28.199982" target-x="298.2" target-y="703.3"></path><path d="M 276.40 349.50 L 276.20 352.50 L 274.70 358.00 L 273.40 360.60 L 271.20 363.60 L 268.60 366.20 L 265.60 368.40 L 263.10 369.70 L 257.60 371.20 L 254.50 371.40 L 251.50 371.20 L 246.00 369.70 L 243.50 368.40 L 240.40 366.20 L 237.80 363.60 L 235.70 360.60 L 233.50 355.40 L 232.90 352.50 L 232.70 349.50 L 233.50 343.70 L 235.70 338.50 L 237.80 335.40 L 240.40 332.80 L 243.50 330.60 L 246.00 329.40 L 251.50 327.90 L 254.50 327.70 L 257.60 327.90 L 263.10 329.40 L 265.60 330.60 L 268.60 332.80 L 271.20 335.40 L 273.40 338.50 L 274.70 341.00 L 276.20 346.50 L 276.40 349.50 Z" fill="#ffb7b7" fill-rule="nonzero" group-id="4" node-id="305" stroke="none" target-height="43.69998" target-width="43.699997" target-x="232.7" target-y="327.7"></path><path d="M 239.50 350.90 L 232.10 354.80 L 229.20 356.80 L 228.60 358.10 L 229.60 359.10 L 232.80 359.90 L 236.70 359.80 L 238.40 359.30 L 239.60 358.40 L 240.30 357.30 L 240.50 355.90 L 240.50 354.50 L 239.50 350.90 Z" fill="#ffb7b7" fill-rule="nonzero" group-id="4" node-id="307" stroke="none" target-height="9" target-width="11.899994" target-x="228.6" target-y="350.9"></path><path d="M 232.80 342.50 L 235.50 342.00 L 237.50 341.10 L 239.60 339.90 L 242.00 337.80 L 242.70 340.70 L 244.60 344.60 L 246.40 346.50 L 249.60 348.60 L 254.10 349.80 L 260.40 349.80 L 262.30 346.80 L 263.20 345.90 L 265.00 345.30 L 266.60 346.00 L 267.70 347.40 L 269.00 350.30 L 276.20 352.70 L 277.30 352.70 L 277.60 348.10 L 277.30 344.90 L 276.70 341.50 L 275.30 337.80 L 274.10 335.40 L 272.40 333.20 L 270.20 331.00 L 267.70 329.20 L 264.60 327.60 L 260.60 326.40 L 256.50 325.70 L 252.90 325.70 L 249.80 326.20 L 246.80 327.20 L 244.20 328.40 L 241.90 329.90 L 238.90 332.70 L 236.60 335.40 L 234.80 338.20 L 232.80 342.50 Z" fill="#26205c" fill-rule="nonzero" group-id="4" node-id="309" stroke="none" target-height="27" target-width="44.800003" target-x="232.8" target-y="325.7"></path><path d="M 275.40 327.20 L 275.20 328.80 L 274.60 330.20 L 273.60 331.60 L 272.20 332.50 L 270.80 333.10 L 269.20 333.40 L 267.50 333.10 L 266.10 332.50 L 264.80 331.60 L 263.80 330.20 L 263.20 328.80 L 263.00 327.20 L 263.20 325.50 L 263.80 324.10 L 264.80 322.80 L 266.10 321.80 L 267.50 321.20 L 269.20 320.90 L 270.80 321.20 L 272.20 321.80 L 273.60 322.80 L 274.60 324.10 L 275.20 325.50 L 275.40 327.20 Z" fill="#26205c" fill-rule="nonzero" group-id="4" node-id="311" stroke="none" target-height="12.5" target-width="12.399994" target-x="263" target-y="320.9"></path><path d="M 298.70 312.00 L 298.60 314.20 L 297.40 318.50 L 295.20 322.30 L 293.80 324.00 L 292.10 325.50 L 288.30 327.70 L 284.00 328.80 L 281.80 328.90 L 279.50 328.80 L 275.30 327.70 L 271.40 325.50 L 269.80 324.00 L 267.00 320.40 L 265.40 316.40 L 264.90 314.20 L 264.80 312.00 L 265.40 307.60 L 267.00 303.50 L 269.80 300.00 L 271.40 298.50 L 275.30 296.30 L 279.50 295.10 L 281.80 295.00 L 284.00 295.10 L 288.30 296.30 L 292.10 298.50 L 293.80 300.00 L 295.20 301.70 L 297.40 305.50 L 298.60 309.70 L 298.70 312.00 Z" fill="#26205c" fill-rule="nonzero" group-id="4" node-id="313" stroke="none" target-height="33.899994" target-width="33.900024" target-x="264.8" target-y="295"></path><path d="M 343.80 329.40 L 342.10 329.00 L 346.60 313.80 L 345.80 312.50 L 344.30 312.00 L 343.00 312.70 L 342.60 313.40 L 337.60 329.60 L 334.50 331.70 L 333.30 333.20 L 332.40 334.90 L 331.00 332.10 L 329.90 331.10 L 328.30 331.20 L 327.20 332.30 L 327.30 333.90 L 330.50 340.70 L 328.20 348.90 L 328.40 352.20 L 329.20 354.40 L 330.60 356.40 L 333.20 358.30 L 334.70 359.00 L 338.00 359.40 L 339.60 359.10 L 341.90 358.30 L 343.90 356.90 L 345.00 355.70 L 346.50 352.80 L 350.10 341.10 L 350.50 337.80 L 350.20 336.20 L 349.40 333.90 L 348.00 332.00 L 345.40 330.00 L 343.80 329.40 Z" fill="#ffb7b7" fill-rule="nonzero" group-id="4" node-id="315" stroke="none" target-height="47.399994" target-width="23.299988" target-x="327.2" target-y="312"></path><path d="M 114.40 362.80 L 145.90 419.80 L 180.30 421.30 L 147.30 359.80 L 112.40 359.80 Z" fill="#e9a621" fill-rule="nonzero" group-id="4" node-id="317" stroke="none" target-height="61.5" target-width="67.9" target-x="112.4" target-y="359.8"></path><g node-id="527"><g node-id="535"><path d="M 346.30 352.60 L 328.50 347.10 L 327.70 347.10 L 326.20 347.80 L 314.20 386.60 L 286.60 386.60 L 283.80 386.90 L 279.40 386.90 L 278.90 386.70 L 274.80 381.20 L 272.70 380.10 L 245.80 379.90 L 244.20 380.10 L 241.40 381.40 L 236.00 386.80 L 226.50 386.80 L 224.00 387.40 L 221.80 388.50 L 219.90 390.10 L 218.20 392.20 L 189.60 436.00 L 188.60 437.90 L 187.60 442.10 L 188.10 446.20 L 190.00 450.00 L 193.20 452.90 L 195.20 454.00 L 199.30 454.90 L 203.40 454.40 L 207.20 452.50 L 210.20 449.40 L 221.50 431.90 L 222.60 468.80 L 294.10 466.40 L 294.30 411.10 L 320.00 411.10 L 324.40 410.80 L 326.70 410.10 L 328.80 408.90 L 330.60 407.20 L 332.10 405.30 L 333.10 402.90 L 347.70 355.30 L 347.60 353.60 L 346.30 352.60 Z" fill="#a9d4ca" fill-rule="nonzero" group-id="4,15,23" node-id="323" stroke="none" target-height="121.69998" target-width="160.1" target-x="187.6" target-y="347.1"></path></g><g node-id="536"><g clip-path="url(#XMLID_4_)" group-id="4,15,24" node-id="326"><path d="M 218.90 439.90 L 225.50 418.80 L 226.90 474.10 L 216.30 474.30 Z" fill="#94beb3" fill-rule="nonzero" group-id="4,15,24" node-id="328" stroke="none" target-height="55.5" target-width="10.599991" target-x="216.3" target-y="418.8"></path></g></g><g clip-path="url(#XMLID_4_)" group-id="4,15,25" node-id="331"><path d="M 286.70 410.70 L 294.30 411.10 L 295.30 480.50 Z" fill="#94beb3" fill-rule="nonzero" group-id="4,15,25" node-id="333" stroke="none" target-height="69.79999" target-width="8.599976" target-x="286.7" target-y="410.7"></path></g></g><path d="M 189.50 350.90 L 147.30 359.80 L 180.30 421.30 L 225.50 425.80 Z" fill="#ffb000" fill-rule="nonzero" group-id="4" node-id="337" stroke="none" target-height="74.899994" target-width="78.2" target-x="147.3" target-y="350.9"></path><path d="M 171.60 401.00 L 163.20 392.60 L 163.80 385.40 L 162.90 384.40 L 162.20 384.20 L 161.50 384.20 L 160.40 385.10 L 159.90 389.30 L 157.00 386.70 L 155.50 385.80 L 152.00 384.90 L 148.50 385.20 L 146.80 385.80 L 143.70 387.90 L 141.60 391.00 L 140.70 394.50 L 141.00 398.00 L 142.50 401.30 L 158.20 417.00 L 161.50 418.50 L 165.10 418.80 L 168.50 417.90 L 170.10 417.00 L 171.60 415.80 L 173.70 412.70 L 174.60 409.30 L 174.30 405.70 L 172.80 402.50 L 171.60 401.00 Z" fill="#ffb7b7" fill-rule="nonzero" group-id="4" node-id="339" stroke="none" target-height="34.599976" target-width="33.90001" target-x="140.7" target-y="384.2"></path><path d="M 168.50 395.30 L 205.10 431.90 L 207.60 435.50 L 208.60 439.60 L 208.30 443.70 L 206.50 447.60 L 205.10 449.30 L 201.50 451.80 L 197.40 452.80 L 193.30 452.50 L 189.50 450.70 L 187.70 449.30 L 150.60 412.00 L 150.60 410.30 L 151.10 409.60 L 165.40 395.30 L 166.90 394.70 L 168.50 395.30 Z" fill="#a9d4ca" fill-rule="nonzero" group-id="4" node-id="341" stroke="none" target-height="58.099976" target-width="58" target-x="150.6" target-y="394.7"></path><g node-id="528"><g node-id="538"><path d="M 222.40 468.40 L 214.20 703.30 L 262.90 703.30 L 261.90 497.70 L 292.80 703.30 L 332.30 703.30 L 294.30 465.90 Z" fill="#8ea594" fill-rule="nonzero" group-id="4,16,26" node-id="347" stroke="none" target-height="237.4" target-width="118.09999" target-x="214.2" target-y="465.9"></path></g><g clip-path="url(#SVGID_1_)" group-id="4,16,27" node-id="350"><path d="M 201.90 474.80 L 310.10 469.50 L 307.60 453.60 L 205.00 463.30 Z" fill="#7e9a84" fill-rule="nonzero" group-id="4,16,27" node-id="352" stroke="none" target-height="21.199982" target-width="108.20001" target-x="201.9" target-y="453.6"></path></g></g><g node-id="529"><g node-id="540"><path d="M 329.30 713.70 L 296.20 713.70 L 294.70 723.20 L 292.70 728.90 L 291.20 731.20 L 290.00 732.50 L 284.30 735.40 L 283.10 736.70 L 281.60 739.00 L 279.50 744.70 L 278.10 754.20 L 332.30 754.20 L 329.30 713.70 Z" fill="#26205c" fill-rule="nonzero" group-id="4,17,28" node-id="360" stroke="none" target-height="40.5" target-width="54.19998" target-x="278.1" target-y="713.7"></path></g><g clip-path="url(#XMLID_5_)" group-id="4,17,29" node-id="363"><path d="M 273.10 748.50 L 339.80 748.50 L 339.80 750.70 L 273.10 750.70 Z" fill="#ffffff" fill-rule="nonzero" group-id="4,17,29" node-id="365" stroke="none" target-height="2.2000122" target-width="66.69998" target-x="273.1" target-y="748.5"></path></g></g><path d="M 259.00 394.10 L 246.30 393.40 L 236.80 392.30 L 232.60 391.50 L 232.00 391.10 L 231.80 390.40 L 232.20 389.70 L 233.00 389.60 L 249.20 391.60 L 261.20 392.00 L 267.40 391.70 L 273.50 390.90 L 279.10 389.60 L 279.90 389.70 L 280.40 390.30 L 280.30 391.00 L 279.70 391.50 L 274.80 392.70 L 269.60 393.50 L 259.00 394.10 Z" fill="#26205c" fill-rule="nonzero" group-id="4" node-id="369" stroke="none" target-height="4.5" target-width="48.59999" target-x="231.8" target-y="389.6"></path><path d="M 320.40 412.20 L 281.70 411.20 L 281.00 410.80 L 280.80 410.10 L 281.10 409.40 L 281.80 409.20 L 320.00 410.10 L 323.30 409.90 L 327.40 408.40 L 329.40 406.90 L 331.60 403.90 L 332.40 401.80 L 332.90 401.20 L 333.70 401.10 L 334.30 401.60 L 334.30 402.40 L 333.50 404.60 L 331.30 407.80 L 329.20 409.50 L 325.00 411.50 L 320.40 412.20 Z" fill="#26205c" fill-rule="nonzero" group-id="4" node-id="371" stroke="none" target-height="11.100006" target-width="53.5" target-x="280.8" target-y="401.1"></path><path d="M 197.20 425.40 L 196.50 425.10 L 174.50 402.80 L 174.20 402.10 L 174.50 401.40 L 175.20 401.10 L 175.90 401.40 L 197.90 423.70 L 198.20 424.40 L 197.90 425.10 L 197.20 425.40 Z" fill="#26205c" fill-rule="nonzero" group-id="4" node-id="373" stroke="none" target-height="24.299988" target-width="24" target-x="174.2" target-y="401.1"></path><path d="M 221.10 698.10 L 220.40 697.70 L 220.10 697.00 L 225.20 490.50 L 225.50 489.80 L 228.40 488.40 L 230.90 485.30 L 233.40 480.30 L 235.40 473.90 L 235.80 473.20 L 236.60 473.10 L 237.20 473.60 L 237.30 474.30 L 234.80 482.20 L 231.60 487.80 L 230.20 489.40 L 227.20 491.30 L 222.10 697.10 L 221.80 697.80 L 221.10 698.10 Z" fill="#ffffff" fill-rule="nonzero" group-id="4" node-id="375" stroke="none" target-height="224.99997" target-width="17.199997" target-x="220.1" target-y="473.1"></path><path d="M 326.40 698.10 L 325.80 697.80 L 325.40 697.20 L 292.00 488.30 L 287.10 486.00 L 285.30 484.40 L 282.90 481.80 L 281.10 479.20 L 279.10 474.50 L 278.40 472.30 L 278.60 471.50 L 279.20 471.10 L 280.00 471.30 L 280.40 471.90 L 281.70 475.70 L 284.60 480.70 L 286.80 483.10 L 288.60 484.50 L 293.20 486.60 L 293.90 487.40 L 327.40 696.90 L 327.20 697.60 L 326.40 698.10 Z" fill="#ffffff" fill-rule="nonzero" group-id="4" node-id="377" stroke="none" target-height="226.99997" target-width="49" target-x="278.4" target-y="471.1"></path></g><path d="M 414.60 258.40 L 413.90 258.10 L 413.60 257.40 L 413.60 126.70 L 414.20 125.80 L 415.30 126.00 L 422.80 131.50 L 430.10 136.40 L 437.40 140.70 L 444.60 144.30 L 452.10 147.50 L 459.40 150.30 L 466.70 152.50 L 473.80 154.20 L 483.40 156.00 L 492.80 157.10 L 501.80 157.50 L 510.90 157.40 L 519.60 156.90 L 527.80 155.90 L 536.00 154.50 L 550.70 151.00 L 565.50 146.30 L 581.80 139.60 L 590.10 135.60 L 603.90 128.00 L 616.00 120.10 L 617.00 120.00 L 617.60 120.70 L 621.40 135.00 L 626.20 149.70 L 633.10 166.90 L 637.20 175.80 L 642.00 184.80 L 649.20 196.20 L 653.20 201.60 L 657.50 206.70 L 662.00 211.30 L 666.70 215.50 L 670.50 218.30 L 674.40 220.80 L 682.60 224.60 L 686.10 225.60 L 689.70 226.10 L 693.30 226.10 L 697.00 225.60 L 700.70 224.60 L 704.60 223.00 L 708.30 221.00 L 715.60 215.70 L 719.30 212.30 L 723.90 207.50 L 728.30 202.30 L 732.70 196.40 L 738.80 187.40 L 744.50 177.90 L 749.70 168.30 L 758.40 150.10 L 761.70 142.50 L 768.20 125.90 L 768.70 125.30 L 769.50 125.30 L 770.00 125.80 L 770.10 126.60 L 763.10 144.40 L 759.80 152.20 L 751.00 170.30 L 745.80 179.90 L 740.10 189.30 L 733.90 198.30 L 729.50 204.10 L 725.00 209.30 L 720.40 214.00 L 713.00 220.30 L 705.50 224.80 L 701.30 226.50 L 697.30 227.60 L 693.40 228.10 L 689.60 228.10 L 685.70 227.50 L 681.90 226.50 L 677.40 224.60 L 673.10 222.30 L 669.00 219.70 L 665.00 216.70 L 660.00 212.20 L 655.40 207.30 L 650.90 201.90 L 646.90 196.30 L 639.60 184.70 L 634.90 175.80 L 631.00 167.40 L 627.80 159.70 L 622.60 145.50 L 617.60 129.00 L 616.00 122.60 L 608.20 127.70 L 594.20 135.70 L 585.40 140.10 L 567.60 147.60 L 551.30 152.90 L 534.30 156.90 L 517.90 159.10 L 509.70 159.60 L 501.60 159.60 L 493.70 159.30 L 485.90 158.50 L 478.30 157.30 L 470.90 155.70 L 463.50 153.80 L 456.30 151.40 L 449.20 148.60 L 440.60 144.60 L 432.10 140.00 L 423.80 134.70 L 415.60 128.80 L 415.60 257.40 L 415.40 258.10 L 414.60 258.40 Z" fill="#232323" fill-rule="nonzero" node-id="380" stroke="none" target-height="138.4" target-width="356.49997" target-x="413.6" target-y="120"></path><path d="M 379.60 294.80 L 454.40 294.80 L 414.60 255.40 Z" fill="#232323" fill-rule="nonzero" node-id="382" stroke="none" target-height="39.399994" target-width="74.79999" target-x="379.6" target-y="255.4"></path><path d="M 197.20 609.00 L 166.20 574.50 L 72.50 574.50 L 70.40 574.20 L 68.60 573.40 L 67.00 572.20 L 65.80 570.70 L 65.10 568.90 L 64.80 566.80 L 64.80 506.60 L 65.10 504.50 L 65.80 502.70 L 67.00 501.20 L 68.60 500.00 L 70.40 499.20 L 72.50 498.90 L 189.50 498.90 L 191.50 499.20 L 193.40 500.00 L 194.90 501.20 L 196.10 502.70 L 196.90 504.50 L 197.20 506.60 L 197.20 609.00 Z" fill="#ffffff" fill-rule="nonzero" node-id="384" stroke="none" target-height="110.100006" target-width="132.4" target-x="64.8" target-y="498.9"></path><path d="M 261.80 248.80 L 125.60 248.80 L 123.10 248.50 L 120.90 247.90 L 116.90 245.60 L 113.90 242.00 L 112.90 239.90 L 112.30 237.70 L 112.10 235.20 L 112.10 151.40 L 112.30 148.90 L 112.90 146.60 L 115.20 142.60 L 118.80 139.70 L 120.90 138.70 L 123.10 138.10 L 125.60 137.80 L 261.80 137.80 L 264.30 138.10 L 266.60 138.70 L 270.60 141.00 L 273.50 144.50 L 274.50 146.60 L 275.20 148.90 L 275.40 151.40 L 275.40 235.20 L 275.20 237.70 L 274.50 239.90 L 273.50 242.00 L 270.60 245.60 L 266.60 247.90 L 264.30 248.50 L 261.80 248.80 Z" fill="#ff6666" fill-rule="nonzero" node-id="386" stroke="none" target-height="111" target-width="163.29999" target-x="112.1" target-y="137.8"></path><path d="M 268.20 245.80 L 131.90 245.80 L 129.30 245.50 L 126.90 244.90 L 124.60 243.80 L 122.60 242.40 L 120.80 240.60 L 119.40 238.60 L 118.30 236.30 L 117.60 233.90 L 117.40 231.30 L 117.40 147.40 L 117.60 144.80 L 118.30 142.30 L 119.40 140.10 L 120.80 138.00 L 122.60 136.30 L 124.60 134.90 L 126.90 133.80 L 129.30 133.10 L 131.90 132.90 L 268.20 132.90 L 270.80 133.10 L 273.30 133.80 L 275.50 134.90 L 277.60 136.30 L 279.30 138.00 L 280.70 140.10 L 281.80 142.30 L 282.50 144.80 L 282.70 147.40 L 282.70 231.30 L 282.50 233.90 L 281.80 236.30 L 280.70 238.60 L 279.30 240.60 L 277.60 242.40 L 275.50 243.80 L 273.30 244.90 L 270.80 245.50 L 268.20 245.80 Z M 131.90 134.90 L 127.60 135.70 L 123.90 137.80 L 121.10 141.10 L 120.20 143.00 L 119.40 147.40 L 119.40 231.30 L 119.60 233.50 L 121.10 237.60 L 123.90 240.80 L 127.60 243.00 L 131.90 243.80 L 268.20 243.80 L 272.60 243.00 L 274.50 242.10 L 277.80 239.30 L 279.90 235.60 L 280.70 231.30 L 280.70 147.40 L 280.50 145.10 L 279.00 141.10 L 277.80 139.30 L 274.50 136.60 L 270.50 135.10 L 268.20 134.90 L 131.90 134.90 Z" fill="#232323" fill-rule="nonzero" node-id="388" stroke="none" target-height="112.90001" target-width="165.30002" target-x="117.4" target-y="132.9"></path><g node-id="517"><path d="M 234.10 204.60 L 231.20 208.00 L 228.30 210.60 L 225.20 212.60 L 222.00 214.00 L 218.70 214.80 L 215.10 215.10 L 211.30 214.80 L 208.10 214.00 L 205.40 212.80 L 203.20 211.20 L 201.40 209.00 L 199.30 210.90 L 197.00 212.30 L 194.60 213.30 L 191.90 213.90 L 189.00 214.10 L 186.10 213.80 L 183.10 213.00 L 180.30 211.70 L 178.00 210.20 L 176.10 208.30 L 174.60 206.10 L 173.60 203.60 L 172.90 200.60 L 172.60 197.10 L 172.90 193.00 L 173.50 189.20 L 174.60 185.50 L 176.10 182.00 L 178.00 178.70 L 180.40 175.50 L 183.30 172.40 L 186.30 170.00 L 189.60 168.10 L 193.00 166.70 L 196.70 165.90 L 200.60 165.60 L 203.70 165.90 L 206.00 166.50 L 207.70 167.50 L 208.90 168.70 L 209.90 166.90 L 223.80 166.90 L 215.30 204.50 L 215.50 205.70 L 216.10 206.40 L 217.20 206.60 L 219.00 206.30 L 220.80 205.30 L 222.90 203.50 L 225.10 200.60 L 228.30 194.40 L 229.40 191.00 L 230.10 187.10 L 230.40 183.40 L 230.10 178.90 L 229.30 175.00 L 228.00 171.60 L 226.30 168.60 L 224.10 166.00 L 221.40 163.70 L 218.10 161.80 L 214.20 160.20 L 209.60 158.90 L 204.00 158.10 L 197.40 157.90 L 193.30 158.10 L 189.60 158.80 L 186.20 159.90 L 183.00 161.40 L 180.10 163.20 L 177.40 165.60 L 174.90 168.30 L 172.50 171.70 L 170.60 175.30 L 169.10 179.10 L 168.00 183.30 L 167.30 187.80 L 167.10 192.60 L 167.40 197.20 L 168.10 201.40 L 169.40 205.20 L 171.10 208.70 L 173.30 211.90 L 176.00 214.80 L 179.00 217.50 L 182.30 219.60 L 185.90 221.30 L 189.80 222.50 L 194.00 223.20 L 198.70 223.50 L 205.20 223.20 L 211.70 222.20 L 217.90 220.70 L 224.10 218.50 L 226.50 224.80 L 219.60 228.00 L 213.40 230.30 L 208.00 231.80 L 203.10 232.60 L 198.80 232.80 L 192.80 232.60 L 187.20 231.90 L 181.90 230.70 L 177.00 229.10 L 172.40 227.00 L 168.20 224.70 L 164.50 222.10 L 161.10 219.20 L 158.20 216.00 L 155.60 212.40 L 153.40 208.40 L 151.60 204.30 L 150.40 200.10 L 149.60 195.90 L 149.30 191.50 L 149.60 186.80 L 150.30 182.40 L 151.40 178.30 L 153.00 174.40 L 155.10 170.70 L 157.60 167.10 L 160.60 163.80 L 164.10 160.60 L 168.10 157.60 L 172.30 155.20 L 176.80 153.10 L 181.50 151.50 L 186.50 150.30 L 191.80 149.60 L 197.40 149.40 L 203.70 149.60 L 209.30 150.30 L 214.50 151.40 L 219.10 152.90 L 223.40 154.80 L 227.30 157.00 L 230.90 159.80 L 233.90 162.90 L 236.40 166.20 L 238.30 169.90 L 239.70 173.90 L 240.50 178.30 L 240.80 183.30 L 240.50 188.00 L 239.70 192.40 L 238.40 196.70 L 236.50 200.70 L 234.10 204.60 Z M 200.90 174.60 L 199.40 174.90 L 197.90 175.90 L 196.20 177.70 L 194.30 180.80 L 192.40 185.30 L 191.00 190.00 L 190.20 194.10 L 190.00 197.90 L 190.60 202.00 L 191.30 202.90 L 192.00 203.40 L 194.50 203.40 L 195.90 202.70 L 197.40 201.60 L 198.80 199.80 L 200.20 197.20 L 201.60 193.60 L 203.00 188.50 L 203.80 183.60 L 204.10 178.90 L 203.80 176.90 L 203.20 175.60 L 202.20 174.90 L 200.90 174.60 Z" fill="#ffffff" fill-rule="nonzero" group-id="5" node-id="392" stroke="none" target-height="83.40001" target-width="91.5" target-x="149.3" target-y="149.4"></path></g><path d="M 172.40 524.60 L 78.50 524.60 L 76.90 524.00 L 76.30 522.40 L 76.50 513.30 L 77.60 512.20 L 78.50 512.00 L 172.40 512.00 L 174.00 512.60 L 174.60 514.20 L 174.40 523.30 L 173.30 524.50 L 172.40 524.60 Z" fill="#5a78ec" fill-rule="nonzero" node-id="395" stroke="none" target-height="12.599976" target-width="98.3" target-x="76.3" target-y="512"></path><path d="M 142.00 542.50 L 78.50 542.50 L 76.90 541.90 L 76.30 540.30 L 76.50 531.30 L 77.60 530.10 L 78.50 529.90 L 142.00 529.90 L 143.60 530.60 L 144.20 532.10 L 144.10 541.20 L 142.90 542.40 L 142.00 542.50 Z" fill="#5a78ec" fill-rule="nonzero" node-id="397" stroke="none" target-height="12.599976" target-width="67.899994" target-x="76.3" target-y="529.9"></path><path d="M 116.20 562.90 L 77.60 562.80 L 76.50 561.60 L 76.30 560.70 L 76.30 552.50 L 76.50 551.70 L 77.60 550.50 L 117.10 550.50 L 118.30 551.70 L 118.40 552.50 L 118.40 560.70 L 117.80 562.30 L 116.20 562.90 Z" fill="#5a78ec" fill-rule="nonzero" node-id="399" stroke="none" target-height="12.400024" target-width="42.1" target-x="76.3" target-y="550.5"></path><g node-id="518"><path d="M 652.00 729.10 L 505.70 744.90 L 503.10 744.90 L 500.70 744.50 L 498.40 743.60 L 496.30 742.40 L 494.50 740.90 L 492.90 739.00 L 491.70 737.00 L 490.80 734.70 L 490.30 732.10 L 435.30 391.90 L 435.30 389.30 L 435.70 386.80 L 436.50 384.60 L 437.80 382.50 L 439.30 380.60 L 441.10 379.10 L 443.20 377.80 L 445.50 377.00 L 448.10 376.50 L 645.70 358.70 L 648.30 358.70 L 650.70 359.10 L 653.00 359.90 L 655.10 361.20 L 656.90 362.70 L 658.50 364.50 L 659.70 366.60 L 660.60 368.90 L 661.10 371.50 L 664.80 716.30 L 664.40 718.70 L 663.50 721.00 L 662.30 723.10 L 660.80 724.90 L 659.00 726.50 L 656.90 727.80 L 654.60 728.60 L 652.00 729.10 Z" fill="#3a59af" fill-rule="nonzero" group-id="6" node-id="403" stroke="none" target-height="386.2" target-width="229.5" target-x="435.3" target-y="358.7"></path><g node-id="530"><g node-id="542"><path d="M 795.80 371.40 L 868.70 371.40 L 871.70 371.70 L 874.50 372.40 L 877.00 373.60 L 879.40 375.30 L 881.30 377.20 L 883.00 379.60 L 884.20 382.10 L 884.90 384.90 L 885.20 387.90 L 885.20 425.30 L 885.50 428.60 L 886.50 431.60 L 888.00 434.50 L 890.00 437.00 L 907.40 454.40 L 909.50 456.90 L 911.00 459.70 L 911.90 462.80 L 912.20 466.00 L 912.20 581.50 L 911.90 584.70 L 911.00 587.80 L 909.50 590.60 L 907.40 593.10 L 893.30 607.20 L 891.30 609.70 L 889.70 612.60 L 888.80 615.60 L 888.50 618.90 L 888.50 737.70 L 888.20 740.70 L 887.50 743.50 L 886.20 746.00 L 884.60 748.30 L 882.60 750.30 L 880.30 751.90 L 877.80 753.20 L 875.00 753.90 L 872.00 754.20 L 684.60 754.20 L 681.50 753.90 L 678.80 753.20 L 676.20 751.90 L 673.90 750.30 L 672.00 748.30 L 670.30 746.00 L 669.10 743.50 L 668.30 740.70 L 668.10 737.70 L 668.10 387.90 L 668.30 384.90 L 669.10 382.10 L 670.30 379.60 L 672.00 377.20 L 673.90 375.30 L 676.20 373.60 L 678.80 372.40 L 681.50 371.70 L 684.60 371.40 L 795.80 371.40 Z" fill="#ffffff" fill-rule="nonzero" group-id="6,18,30" node-id="409" stroke="none" target-height="382.80002" target-width="244.10004" target-x="668.1" target-y="371.4"></path></g><g node-id="543"><g clip-path="url(#XMLID_6_)" group-id="6,18,31" node-id="412"><path d="M 620.70 342.70 L 951.10 342.70 L 951.10 402.10 L 620.70 402.10 Z" fill="#ffd840" fill-rule="nonzero" group-id="6,18,31" node-id="414" stroke="none" target-height="59.399994" target-width="330.39996" target-x="620.7" target-y="342.7"></path></g></g><g clip-path="url(#XMLID_6_)" group-id="6,18,32" node-id="417"><path d="M 734.60 381.00 L 734.60 420.40 L 735.20 425.50 L 737.20 430.20 L 738.60 432.40 L 758.60 452.80 L 760.00 454.90 L 761.90 459.60 L 762.60 464.70 L 762.40 584.80 L 761.10 589.70 L 758.60 594.10 L 740.50 612.70 L 738.00 617.10 L 736.60 622.00 L 736.50 734.60 L 736.00 741.50 L 734.40 747.30 L 733.00 749.60 L 731.30 751.50 L 729.80 752.60 L 725.70 754.00 L 723.00 754.20 L 683.50 754.20 L 679.90 753.90 L 676.60 753.00 L 673.60 751.50 L 670.80 749.60 L 668.50 747.20 L 666.50 744.50 L 665.10 741.40 L 664.20 738.10 L 663.80 734.60 L 663.80 379.30 L 664.00 376.50 L 664.60 373.90 L 666.70 369.10 L 668.80 366.30 L 671.20 364.00 L 674.20 362.00 L 676.50 361.00 L 681.70 359.80 L 684.50 359.70 L 709.10 361.80 L 716.60 363.90 L 724.20 367.60 L 727.50 369.80 L 730.40 372.40 L 732.60 375.00 L 733.70 377.00 L 734.30 379.00 L 734.60 381.00 Z" fill="#d85555" fill-opacity="0.15" fill-rule="nonzero" group-id="6,18,32" node-id="419" stroke="none" target-height="394.5" target-width="98.79999" target-x="663.8" target-y="359.7"></path></g></g><g node-id="531"><g node-id="545"><path d="M 639.10 371.40 L 712.10 371.40 L 715.10 371.70 L 717.90 372.40 L 720.40 373.60 L 722.70 375.30 L 724.70 377.20 L 726.30 379.60 L 727.50 382.10 L 728.30 384.90 L 728.60 387.90 L 728.60 425.30 L 728.90 428.60 L 729.80 431.60 L 731.30 434.50 L 733.40 437.00 L 750.80 454.40 L 752.80 456.90 L 754.40 459.70 L 755.30 462.80 L 755.60 466.00 L 755.60 581.50 L 755.30 584.70 L 754.40 587.80 L 752.80 590.60 L 750.80 593.10 L 736.70 607.20 L 734.60 609.70 L 733.10 612.60 L 732.20 615.60 L 731.90 618.90 L 731.90 737.70 L 731.60 740.70 L 730.80 743.50 L 729.60 746.00 L 728.00 748.30 L 726.00 750.30 L 723.70 751.90 L 721.10 753.20 L 718.40 753.90 L 715.40 754.20 L 527.90 754.20 L 524.90 753.90 L 522.20 753.20 L 519.60 751.90 L 517.30 750.30 L 515.30 748.30 L 513.70 746.00 L 512.50 743.50 L 511.70 740.70 L 511.40 737.70 L 511.40 387.90 L 511.70 384.90 L 512.50 382.10 L 513.70 379.60 L 515.30 377.20 L 517.30 375.30 L 519.60 373.60 L 522.20 372.40 L 524.90 371.70 L 527.90 371.40 L 639.10 371.40 Z" fill="#ffffff" fill-rule="nonzero" group-id="6,19,33" node-id="427" stroke="none" target-height="382.80002" target-width="244.19998" target-x="511.4" target-y="371.4"></path></g><g node-id="546"><g clip-path="url(#XMLID_7_)" group-id="6,19,34" node-id="430"><path d="M 464.10 342.70 L 794.50 342.70 L 794.50 402.10 L 464.10 402.10 Z" fill="#ff6666" fill-rule="nonzero" group-id="6,19,34" node-id="432" stroke="none" target-height="59.399994" target-width="330.4" target-x="464.1" target-y="342.7"></path></g></g><g node-id="547"><g clip-path="url(#XMLID_7_)" group-id="6,19,35" node-id="435"><path d="M 714.20 442.80 L 646.40 442.80 L 644.80 442.10 L 644.20 440.60 L 644.20 434.40 L 644.40 433.50 L 645.50 432.30 L 714.20 432.20 L 715.80 432.80 L 716.40 434.40 L 716.30 441.40 L 715.10 442.60 L 714.20 442.80 Z" fill="#ff6666" fill-rule="nonzero" group-id="6,19,35" node-id="437" stroke="none" target-height="10.599976" target-width="72.20001" target-x="644.2" target-y="432.2"></path></g></g><g node-id="548"><g clip-path="url(#XMLID_7_)" group-id="6,19,36" node-id="440"><path d="M 714.20 468.30 L 646.40 468.30 L 644.80 467.60 L 644.20 466.10 L 644.20 459.90 L 644.40 459.00 L 645.50 457.90 L 714.20 457.70 L 715.80 458.30 L 716.40 459.90 L 716.30 466.90 L 715.10 468.10 L 714.20 468.30 Z" fill="#ff6666" fill-rule="nonzero" group-id="6,19,36" node-id="442" stroke="none" target-height="10.599976" target-width="72.20001" target-x="644.2" target-y="457.7"></path></g></g><g node-id="549"><g clip-path="url(#XMLID_7_)" group-id="6,19,37" node-id="445"><path d="M 714.20 493.80 L 646.40 493.80 L 644.80 493.20 L 644.20 491.60 L 644.20 485.40 L 644.40 484.50 L 645.50 483.40 L 714.20 483.20 L 715.80 483.80 L 716.40 485.40 L 716.30 492.50 L 715.10 493.60 L 714.20 493.80 Z" fill="#ff6666" fill-rule="nonzero" group-id="6,19,37" node-id="447" stroke="none" target-height="10.599976" target-width="72.20001" target-x="644.2" target-y="483.2"></path></g></g><g clip-path="url(#XMLID_7_)" group-id="6,19,38" node-id="450"><path d="M 666.30 754.50 L 468.00 754.50 L 465.60 754.30 L 463.40 753.70 L 461.40 752.70 L 458.10 749.90 L 456.80 748.10 L 455.80 746.00 L 455.20 743.90 L 455.00 741.50 L 455.00 390.60 L 455.80 386.10 L 458.10 382.20 L 461.40 379.40 L 463.40 378.40 L 465.60 377.80 L 468.00 377.60 L 666.30 377.60 L 668.70 377.80 L 670.80 378.40 L 672.90 379.40 L 674.70 380.70 L 677.50 384.10 L 679.10 388.20 L 679.30 390.60 L 679.30 741.50 L 679.10 743.90 L 678.50 746.00 L 677.50 748.10 L 674.70 751.40 L 670.80 753.70 L 668.70 754.30 L 666.30 754.50 Z" fill="#d85555" fill-opacity="0.15" fill-rule="nonzero" group-id="6,19,38" node-id="452" stroke="none" target-height="376.9" target-width="224.29999" target-x="455" target-y="377.6"></path></g></g><path d="M 660.30 754.20 L 445.80 754.20 L 443.20 754.00 L 440.90 753.30 L 438.70 752.30 L 435.00 749.20 L 433.60 747.20 L 432.60 745.00 L 431.90 742.60 L 431.70 740.10 L 431.70 396.50 L 431.90 393.90 L 432.60 391.50 L 433.60 389.40 L 435.00 387.40 L 436.70 385.70 L 438.70 384.30 L 440.90 383.20 L 443.20 382.60 L 445.80 382.40 L 660.30 382.40 L 662.90 382.60 L 665.30 383.20 L 667.40 384.30 L 669.40 385.70 L 671.10 387.40 L 672.50 389.40 L 673.60 391.50 L 674.20 393.90 L 674.50 396.50 L 674.50 740.10 L 674.20 742.60 L 673.60 745.00 L 672.50 747.20 L 671.10 749.20 L 669.40 750.90 L 667.40 752.30 L 665.30 753.30 L 662.90 754.00 L 660.30 754.20 Z" fill="#5a78ec" fill-rule="nonzero" group-id="6" node-id="456" stroke="none" target-height="371.80002" target-width="242.79999" target-x="431.7" target-y="382.4"></path><path d="M 457.60 734.00 L 455.70 733.20 L 455.20 732.30 L 455.00 731.30 L 455.00 415.90 L 455.20 414.80 L 456.60 413.40 L 457.60 413.20 L 458.70 413.40 L 460.10 414.80 L 460.30 415.90 L 460.30 731.30 L 459.50 733.20 L 458.70 733.70 L 457.60 734.00 Z" fill="#ffffff" fill-rule="nonzero" group-id="6" node-id="458" stroke="none" target-height="320.8" target-width="5.299988" target-x="455" target-y="413.2"></path><path d="M 610.70 548.90 L 506.10 548.90 L 504.50 548.60 L 503.10 548.10 L 501.80 547.10 L 500.90 545.90 L 500.30 544.50 L 500.10 542.80 L 500.10 438.20 L 500.30 436.60 L 500.90 435.20 L 503.10 433.00 L 504.50 432.40 L 506.10 432.20 L 610.70 432.20 L 612.40 432.40 L 615.00 433.90 L 616.00 435.20 L 616.60 436.60 L 616.80 438.20 L 616.80 542.80 L 616.60 544.50 L 616.00 545.90 L 615.00 547.10 L 613.80 548.10 L 612.40 548.60 L 610.70 548.90 Z" fill="#ffffff" fill-rule="nonzero" group-id="6" node-id="460" stroke="none" target-height="116.70001" target-width="116.69998" target-x="500.1" target-y="432.2"></path><path d="M 603.80 463.00 L 513.00 463.00 L 511.90 462.50 L 511.40 461.40 L 511.60 455.40 L 512.40 454.50 L 513.00 454.40 L 603.80 454.40 L 605.00 454.90 L 605.40 456.00 L 605.30 462.00 L 604.50 462.90 L 603.80 463.00 Z" fill="#5a78ec" fill-rule="nonzero" group-id="6" node-id="462" stroke="none" target-height="8.600006" target-width="94.00003" target-x="511.4" target-y="454.4"></path><path d="M 603.80 493.80 L 513.00 493.80 L 511.90 493.30 L 511.40 492.20 L 511.40 486.80 L 511.60 486.20 L 512.40 485.30 L 603.80 485.20 L 605.00 485.70 L 605.40 486.80 L 605.30 492.80 L 604.50 493.70 L 603.80 493.80 Z" fill="#5a78ec" fill-rule="nonzero" group-id="6" node-id="464" stroke="none" target-height="8.599976" target-width="94.00003" target-x="511.4" target-y="485.2"></path><path d="M 603.80 524.60 L 513.00 524.60 L 511.90 524.20 L 511.40 523.00 L 511.40 517.60 L 511.60 517.00 L 512.40 516.20 L 603.80 516.00 L 605.00 516.50 L 605.40 517.60 L 605.30 523.70 L 604.50 524.50 L 603.80 524.60 Z" fill="#5a78ec" fill-rule="nonzero" group-id="6" node-id="466" stroke="none" target-height="8.599976" target-width="94.00003" target-x="511.4" target-y="516"></path><path d="M 860.40 447.30 L 772.50 447.30 L 771.10 446.70 L 770.50 445.30 L 770.50 434.20 L 770.70 433.40 L 771.70 432.30 L 860.40 432.20 L 861.90 432.80 L 862.50 434.20 L 862.50 445.30 L 861.90 446.70 L 860.40 447.30 Z" fill="#ffd840" fill-rule="nonzero" group-id="6" node-id="468" stroke="none" target-height="15.099976" target-width="92" target-x="770.5" target-y="432.2"></path><path d="M 839.70 478.10 L 771.70 478.00 L 770.70 476.90 L 770.50 476.10 L 770.50 465.00 L 771.10 463.60 L 772.50 463.00 L 840.50 463.10 L 841.60 464.20 L 841.80 465.00 L 841.80 476.10 L 841.20 477.50 L 839.70 478.10 Z" fill="#ffd840" fill-rule="nonzero" group-id="6" node-id="470" stroke="none" target-height="15.100006" target-width="71.29999" target-x="770.5" target-y="463"></path><path d="M 812.70 495.40 L 779.40 528.70 L 777.90 531.30 L 778.00 533.90 L 779.30 536.20 L 781.60 537.60 L 793.40 538.00 L 795.70 539.40 L 797.10 541.70 L 797.30 606.70 L 798.00 609.40 L 799.90 611.30 L 802.60 612.00 L 830.40 612.00 L 833.10 611.30 L 835.00 609.40 L 835.70 606.70 L 835.90 541.70 L 837.20 539.40 L 839.60 538.00 L 849.90 537.80 L 852.70 537.00 L 853.70 536.20 L 855.00 533.90 L 855.10 531.20 L 853.60 528.70 L 820.20 495.40 L 819.10 494.50 L 816.50 493.80 L 813.90 494.50 L 812.70 495.40 Z" fill="#ff6666" fill-rule="nonzero" group-id="6" node-id="472" stroke="none" target-height="118.20001" target-width="77.19995" target-x="777.9" target-y="493.8"></path><path d="M 762.90 634.30 L 802.80 634.30 L 802.80 674.20 L 762.90 674.20 Z" fill="#ff6666" fill-rule="nonzero" group-id="6" node-id="474" stroke="none" target-height="39.900024" target-width="39.899963" target-x="762.9" target-y="634.3"></path><path d="M 762.90 686.60 L 841.80 686.60 L 841.80 706.30 L 762.90 706.30 Z" fill="#ff6666" fill-rule="nonzero" group-id="6" node-id="476" stroke="none" target-height="19.700012" target-width="78.89996" target-x="762.9" target-y="686.6"></path><path d="M 888.00 744.20 L 777.80 744.20 L 777.10 743.90 L 776.80 743.20 L 777.10 742.50 L 777.80 742.20 L 888.00 742.20 L 890.80 741.90 L 893.40 741.20 L 895.80 740.10 L 898.00 738.50 L 899.80 736.70 L 901.30 734.50 L 902.50 732.10 L 903.20 729.50 L 903.50 726.70 L 903.60 605.50 L 904.80 601.20 L 907.10 597.30 L 922.70 581.40 L 924.60 579.00 L 926.00 576.40 L 926.90 573.50 L 927.20 570.50 L 927.20 455.00 L 926.90 452.00 L 926.00 449.10 L 924.60 446.40 L 922.70 444.10 L 905.30 426.70 L 903.80 424.90 L 901.50 421.00 L 900.30 416.70 L 900.20 414.30 L 900.20 376.90 L 899.90 374.10 L 899.20 371.50 L 898.10 369.10 L 896.50 366.90 L 894.70 365.00 L 892.50 363.50 L 890.10 362.40 L 887.50 361.70 L 884.70 361.40 L 811.80 361.40 L 811.00 361.10 L 810.80 360.40 L 811.00 359.70 L 811.80 359.40 L 884.70 359.40 L 887.90 359.70 L 890.80 360.50 L 893.50 361.80 L 896.00 363.50 L 898.10 365.60 L 899.80 368.10 L 901.10 370.80 L 901.90 373.70 L 902.20 376.90 L 902.20 414.30 L 902.50 417.40 L 903.40 420.30 L 904.80 422.90 L 906.70 425.30 L 925.60 444.40 L 927.90 448.30 L 929.10 452.70 L 929.10 572.80 L 927.90 577.20 L 925.60 581.10 L 910.00 596.90 L 908.10 599.30 L 906.60 601.90 L 905.80 604.80 L 905.50 607.90 L 905.50 726.70 L 905.20 729.90 L 904.40 732.80 L 903.10 735.50 L 901.30 738.00 L 899.30 740.10 L 896.80 741.80 L 894.10 743.10 L 891.20 743.90 L 888.00 744.20 Z" fill="#232323" fill-rule="nonzero" group-id="6" node-id="478" stroke="none" target-height="384.80002" target-width="152.29999" target-x="776.8" target-y="359.4"></path><path d="M 884.30 575.30 L 883.60 575.00 L 883.30 574.30 L 883.30 452.60 L 883.60 451.90 L 884.30 451.60 L 885.00 451.90 L 885.30 452.60 L 885.30 574.30 L 885.00 575.00 L 884.30 575.30 Z" fill="#232323" fill-rule="nonzero" group-id="6" node-id="480" stroke="none" target-height="123.69998" target-width="2" target-x="883.3" target-y="451.6"></path><path d="M 729.60 589.30 L 728.90 589.00 L 728.60 588.30 L 728.60 447.30 L 728.90 446.60 L 729.60 446.30 L 730.30 446.60 L 730.60 447.30 L 730.60 588.30 L 730.30 589.00 L 729.60 589.30 Z" fill="#232323" fill-rule="nonzero" group-id="6" node-id="482" stroke="none" target-height="143" target-width="2" target-x="728.6" target-y="446.3"></path><path d="M 665.50 744.20 L 473.20 744.20 L 469.90 744.00 L 466.80 743.30 L 463.90 742.30 L 461.10 740.90 L 456.20 737.10 L 452.50 732.30 L 451.10 729.50 L 450.00 726.50 L 449.40 723.40 L 449.20 720.10 L 449.20 391.80 L 449.40 388.50 L 450.00 385.40 L 451.10 382.50 L 452.50 379.70 L 456.20 374.80 L 461.10 371.10 L 463.90 369.60 L 466.80 368.60 L 469.90 368.00 L 473.20 367.80 L 665.50 367.80 L 668.80 368.00 L 671.90 368.60 L 674.80 369.60 L 677.60 371.10 L 682.50 374.80 L 686.20 379.70 L 687.70 382.50 L 688.70 385.40 L 689.30 388.50 L 689.50 391.80 L 689.50 720.10 L 689.30 723.40 L 688.70 726.50 L 687.70 729.50 L 686.20 732.30 L 682.50 737.10 L 677.60 740.90 L 674.80 742.30 L 671.90 743.30 L 668.80 744.00 L 665.50 744.20 Z M 473.20 369.80 L 470.20 370.00 L 464.60 371.50 L 462.10 372.80 L 459.00 375.00 L 456.40 377.60 L 454.20 380.70 L 452.90 383.20 L 451.40 388.80 L 451.20 391.80 L 451.20 720.10 L 451.40 723.20 L 452.90 728.70 L 454.20 731.30 L 456.40 734.40 L 459.00 737.00 L 462.10 739.20 L 464.60 740.50 L 470.20 742.00 L 473.20 742.20 L 665.50 742.20 L 668.50 742.00 L 671.40 741.40 L 676.60 739.20 L 679.70 737.00 L 682.30 734.40 L 684.50 731.30 L 685.80 728.70 L 687.30 723.20 L 687.50 720.10 L 687.50 391.80 L 686.70 385.90 L 684.50 380.70 L 682.30 377.60 L 679.70 375.00 L 676.60 372.80 L 671.40 370.60 L 665.50 369.80 L 473.20 369.80 Z" fill="#232323" fill-rule="nonzero" group-id="6" node-id="484" stroke="none" target-height="376.40002" target-width="240.29999" target-x="449.2" target-y="367.8"></path></g><path d="M 729.60 317.90 L 729.30 322.40 L 728.60 326.70 L 727.50 330.90 L 726.00 334.90 L 724.00 338.70 L 721.80 342.20 L 719.10 345.50 L 716.20 348.50 L 713.00 351.20 L 709.50 353.60 L 705.80 355.60 L 701.80 357.30 L 700.80 358.00 L 698.50 362.50 L 691.40 383.10 L 689.30 386.60 L 687.80 387.40 L 686.20 386.60 L 684.20 383.10 L 677.10 362.50 L 674.70 358.00 L 673.80 357.30 L 669.80 355.60 L 666.10 353.60 L 662.60 351.20 L 659.40 348.50 L 656.40 345.50 L 653.80 342.20 L 651.50 338.70 L 649.60 334.90 L 648.00 330.90 L 646.90 326.70 L 646.20 322.40 L 646.00 317.90 L 646.20 313.50 L 646.80 309.40 L 647.80 305.40 L 649.20 301.60 L 653.10 294.50 L 658.20 288.30 L 664.40 283.20 L 671.50 279.30 L 675.30 277.90 L 679.30 276.90 L 683.40 276.30 L 687.80 276.00 L 692.10 276.30 L 696.30 276.90 L 700.20 277.90 L 704.00 279.30 L 711.20 283.20 L 717.30 288.30 L 722.40 294.50 L 726.30 301.60 L 727.70 305.40 L 728.70 309.40 L 729.40 313.50 L 729.60 317.90 Z" fill="#ffd840" fill-rule="nonzero" node-id="487" stroke="none" target-height="111.399994" target-width="83.599976" target-x="646" target-y="276"></path><path d="M 205.10 285.10 L 172.10 285.00 L 171.00 284.50 L 169.40 282.90 L 168.70 280.60 L 168.90 279.40 L 170.10 277.40 L 172.10 276.20 L 173.30 276.00 L 206.40 276.20 L 207.40 276.70 L 209.10 278.30 L 209.70 280.60 L 209.50 281.80 L 208.30 283.80 L 206.40 285.00 L 205.10 285.10 Z" fill="#ff6666" fill-rule="nonzero" node-id="489" stroke="none" target-height="9.100006" target-width="41" target-x="168.7" target-y="276"></path><path d="M 205.10 316.50 L 172.10 316.30 L 171.00 315.90 L 169.40 314.30 L 168.70 312.00 L 169.40 309.70 L 171.00 308.00 L 172.10 307.60 L 206.40 307.60 L 207.40 308.00 L 209.10 309.70 L 209.70 312.00 L 209.50 313.20 L 208.30 315.20 L 206.40 316.30 L 205.10 316.50 Z" fill="#ff6666" fill-rule="nonzero" node-id="491" stroke="none" target-height="8.899994" target-width="41" target-x="168.7" target-y="307.6"></path><path d="M 175.70 300.70 L 142.70 300.50 L 141.60 300.10 L 140.00 298.40 L 139.40 296.10 L 140.00 293.80 L 141.60 292.20 L 142.70 291.80 L 177.00 291.80 L 178.00 292.20 L 179.70 293.80 L 180.30 296.10 L 180.10 297.40 L 179.00 299.30 L 177.00 300.50 L 175.70 300.70 Z" fill="#ff6666" fill-rule="nonzero" node-id="493" stroke="none" target-height="8.900024" target-width="40.90001" target-x="139.4" target-y="291.8"></path><path d="M 233.50 300.70 L 200.50 300.50 L 199.40 300.10 L 197.80 298.40 L 197.20 296.10 L 197.80 293.80 L 199.40 292.20 L 200.50 291.80 L 234.80 291.80 L 235.80 292.20 L 237.50 293.80 L 238.10 296.10 L 237.90 297.40 L 236.80 299.30 L 234.80 300.50 L 233.50 300.70 Z" fill="#ff6666" fill-rule="nonzero" node-id="495" stroke="none" target-height="8.900024" target-width="40.90001" target-x="197.2" target-y="291.8"></path><g node-id="519"><g node-id="532"><path d="M 695.10 332.30 L 694.90 336.90 L 694.20 338.40 L 693.20 339.80 L 691.90 340.80 L 690.30 341.40 L 688.50 341.70 L 686.80 341.40 L 685.20 340.80 L 683.90 339.80 L 682.90 338.40 L 682.20 336.90 L 681.70 330.60 L 681.10 329.00 L 680.00 327.70 L 678.70 326.70 L 677.20 326.00 L 670.80 325.50 L 669.30 324.90 L 668.00 323.80 L 666.90 322.50 L 666.30 321.00 L 666.00 319.20 L 666.30 317.40 L 666.90 315.90 L 668.00 314.50 L 669.30 313.50 L 670.80 312.90 L 677.20 312.40 L 678.70 311.70 L 680.00 310.70 L 681.10 309.30 L 681.70 307.80 L 682.20 301.50 L 682.90 299.90 L 683.90 298.60 L 685.20 297.60 L 686.80 296.90 L 688.50 296.70 L 690.30 296.90 L 691.90 297.60 L 693.20 298.60 L 694.20 299.90 L 694.90 301.50 L 695.40 307.80 L 696.00 309.30 L 697.00 310.70 L 698.40 311.70 L 699.90 312.40 L 706.30 312.90 L 707.80 313.50 L 709.10 314.50 L 710.20 315.90 L 710.80 317.40 L 711.00 319.20 L 710.80 321.00 L 710.20 322.50 L 709.10 323.80 L 707.80 324.90 L 706.30 325.50 L 699.90 326.00 L 698.40 326.70 L 697.00 327.70 L 696.00 329.00 L 695.40 330.60 L 695.10 332.30 Z" fill="#ff6666" fill-rule="nonzero" group-id="7,20" node-id="501" stroke="none" target-height="45" target-width="45" target-x="666" target-y="296.7"></path></g></g><path d="M 790.20 280.00 L 786.60 279.80 L 783.30 279.10 L 780.20 278.00 L 777.20 276.50 L 774.50 274.70 L 772.00 272.50 L 769.80 270.00 L 768.00 267.30 L 766.50 264.30 L 765.40 261.20 L 764.70 257.90 L 764.50 254.40 L 764.70 250.80 L 765.40 247.50 L 766.50 244.40 L 768.00 241.40 L 769.80 238.70 L 772.00 236.20 L 774.50 234.00 L 777.20 232.20 L 780.20 230.70 L 783.30 229.60 L 786.60 228.90 L 790.20 228.70 L 793.70 228.90 L 797.00 229.60 L 800.10 230.70 L 803.10 232.20 L 805.80 234.00 L 808.30 236.20 L 810.50 238.70 L 812.30 241.40 L 813.80 244.40 L 814.90 247.50 L 815.60 250.80 L 815.80 254.40 L 815.60 257.90 L 814.90 261.20 L 813.80 264.30 L 812.30 267.30 L 810.50 270.00 L 808.30 272.50 L 805.80 274.70 L 803.10 276.50 L 800.10 278.00 L 797.00 279.10 L 793.70 279.80 L 790.20 280.00 Z M 790.20 230.70 L 786.90 230.90 L 783.80 231.50 L 780.90 232.50 L 778.20 233.90 L 773.40 237.60 L 769.70 242.40 L 768.30 245.10 L 767.30 248.00 L 766.70 251.10 L 766.50 254.40 L 766.70 257.60 L 767.30 260.70 L 768.30 263.60 L 771.40 268.80 L 775.70 273.10 L 778.20 274.80 L 783.80 277.20 L 786.90 277.80 L 790.20 278.00 L 793.40 277.80 L 796.50 277.20 L 799.40 276.20 L 804.60 273.10 L 808.90 268.80 L 812.00 263.60 L 813.00 260.70 L 813.60 257.60 L 813.80 254.40 L 813.60 251.10 L 813.00 248.00 L 812.00 245.10 L 810.60 242.40 L 806.90 237.60 L 802.10 233.90 L 799.40 232.50 L 796.50 231.50 L 793.40 230.90 L 790.20 230.70 Z" fill="#5a78ec" fill-rule="nonzero" node-id="505" stroke="none" target-height="51.300003" target-width="51.299988" target-x="764.5" target-y="228.7"></path><path d="M 947.40 355.50 L 946.20 355.40 L 943.90 354.30 L 935.70 344.80 L 934.20 343.70 L 932.30 343.40 L 921.20 344.50 L 919.50 344.40 L 918.00 343.90 L 916.70 343.00 L 915.60 341.70 L 914.90 340.20 L 914.70 338.60 L 914.90 337.00 L 915.60 335.50 L 921.60 326.00 L 922.10 324.20 L 921.80 322.30 L 917.40 312.00 L 916.90 310.40 L 917.00 308.80 L 917.40 307.30 L 918.30 305.90 L 919.50 304.80 L 921.00 304.10 L 922.60 303.80 L 924.20 304.00 L 935.10 306.70 L 937.00 306.70 L 938.70 305.80 L 947.10 298.40 L 948.50 297.50 L 950.00 297.00 L 951.60 297.00 L 953.20 297.40 L 954.70 298.20 L 955.80 299.40 L 956.50 300.80 L 956.90 302.40 L 957.60 313.60 L 958.20 315.40 L 959.60 316.70 L 969.20 322.40 L 970.50 323.50 L 971.40 324.80 L 972.00 326.30 L 972.10 327.90 L 971.70 329.60 L 971.00 331.00 L 969.80 332.20 L 968.40 333.00 L 958.00 337.20 L 956.50 338.30 L 955.70 340.00 L 953.20 350.90 L 952.60 352.50 L 951.70 353.70 L 950.40 354.70 L 947.40 355.50 Z M 944.40 352.10 L 945.30 352.90 L 947.30 353.50 L 948.40 353.40 L 950.20 352.30 L 951.30 350.50 L 953.70 339.50 L 955.00 337.00 L 957.30 335.30 L 968.60 330.60 L 969.90 328.90 L 970.10 327.80 L 970.00 326.70 L 969.10 324.80 L 958.50 318.40 L 956.50 316.40 L 955.60 313.70 L 954.90 302.60 L 954.20 300.50 L 952.50 299.20 L 951.40 298.90 L 949.30 299.30 L 940.00 307.30 L 937.50 308.60 L 934.60 308.60 L 922.70 305.80 L 920.70 306.40 L 919.80 307.20 L 918.90 309.10 L 919.20 311.30 L 923.70 321.50 L 924.10 324.30 L 923.30 327.00 L 916.90 337.50 L 916.80 339.60 L 917.30 340.70 L 918.00 341.50 L 919.90 342.40 L 932.20 341.40 L 935.00 341.80 L 937.20 343.50 L 944.40 352.10 Z" fill="#5a78ec" fill-rule="nonzero" node-id="507" stroke="none" target-height="58.5" target-width="57.399963" target-x="914.7" target-y="297"></path><path d="M 945.60 343.90 L 943.40 343.20 L 937.20 336.50 L 928.10 336.90 L 926.10 336.00 L 925.30 335.10 L 924.70 332.90 L 925.40 330.80 L 929.10 324.80 L 929.40 323.90 L 926.10 315.40 L 926.50 313.20 L 927.10 312.20 L 927.90 311.40 L 930.00 310.80 L 939.00 312.60 L 939.80 312.10 L 945.10 307.50 L 947.10 306.50 L 949.30 306.80 L 950.30 307.40 L 951.60 309.20 L 952.70 318.20 L 960.30 323.20 L 961.30 325.20 L 961.40 326.30 L 961.10 327.40 L 959.80 329.20 L 951.50 333.00 L 949.20 341.80 L 947.60 343.40 L 945.60 343.90 Z M 944.00 341.20 L 944.90 341.80 L 946.10 341.80 L 947.10 341.30 L 947.60 340.30 L 949.10 333.40 L 950.00 331.70 L 951.60 330.50 L 958.10 327.90 L 959.00 327.20 L 959.40 326.20 L 959.20 325.00 L 958.40 324.20 L 952.30 320.60 L 951.00 319.30 L 950.40 317.40 L 949.90 310.40 L 949.50 309.30 L 948.60 308.60 L 947.50 308.50 L 946.40 309.00 L 941.20 313.60 L 939.40 314.50 L 937.50 314.50 L 930.70 312.80 L 929.50 312.90 L 928.60 313.50 L 928.10 314.50 L 928.30 315.70 L 931.10 322.10 L 931.40 324.00 L 930.80 325.90 L 927.10 331.80 L 926.70 332.90 L 927.10 334.00 L 927.90 334.80 L 929.00 335.00 L 936.00 334.30 L 937.90 334.60 L 939.50 335.80 L 944.00 341.20 Z" fill="#5a78ec" fill-rule="nonzero" node-id="509" stroke="none" target-height="37.399994" target-width="36.700012" target-x="924.7" target-y="306.5"></path><path d="M 825.10 328.40 L 824.50 331.70 L 823.80 333.10 L 822.40 335.00 L 820.50 336.40 L 819.10 337.10 L 815.80 337.70 L 812.60 337.10 L 811.20 336.40 L 809.30 335.00 L 807.80 333.10 L 807.20 331.70 L 806.60 328.40 L 807.20 325.20 L 807.80 323.80 L 809.30 321.90 L 811.20 320.50 L 812.60 319.80 L 815.80 319.20 L 819.10 319.80 L 820.50 320.50 L 822.40 321.90 L 824.50 325.20 L 825.10 328.40 Z" fill="#5a78ec" fill-rule="nonzero" node-id="511" stroke="none" target-height="18.5" target-width="18.5" target-x="806.6" target-y="319.2"></path></svg>