<?xml version="1.0" standalone="no"?><!DOCTYPE svg PUBLIC "-//W3C//DTD SVG 1.1//EN" "http://www.w3.org/Graphics/SVG/1.1/DTD/svg11.dtd"><svg t="1740129492629" class="icon" viewBox="0 0 1024 1024" version="1.1" xmlns="http://www.w3.org/2000/svg" p-id="1582" xmlns:xlink="http://www.w3.org/1999/xlink" width="200" height="200"><path d="M160 206.912c0-25.92 20.992-46.912 46.912-46.912h610.176c25.92 0 46.912 20.992 46.912 46.912v610.176a46.912 46.912 0 0 1-46.912 46.912H206.912a46.912 46.912 0 0 1-46.912-46.912V206.912z m51.2 4.288v601.6h601.6V211.2H211.2z" fill="#5180F1" p-id="1583"></path><path d="M128 149.312C128 137.6 137.6 128 149.312 128h76.672c11.776 0 21.376 9.6 21.376 21.312V211.2h529.28v-61.888c0-11.776 9.6-21.312 21.376-21.312h76.672c11.776 0 21.312 9.6 21.312 21.312v76.672c0 11.776-9.6 21.376-21.312 21.376H812.8v529.28h61.888c11.776 0 21.312 9.6 21.312 21.376v76.672c0 11.776-9.6 21.312-21.312 21.312h-76.672a21.312 21.312 0 0 1-21.376-21.312V812.8h-529.28v61.888c0 11.776-9.6 21.312-21.376 21.312H149.312A21.312 21.312 0 0 1 128 874.688v-76.672c0-11.776 9.6-21.376 21.312-21.376H211.2v-529.28h-61.888A21.312 21.312 0 0 1 128 225.92V149.312zM290.944 300.8a25.6 25.6 0 1 0 0 51.2h439.424a25.6 25.6 0 0 0 0-51.2H290.944z m0 185.6a25.6 25.6 0 1 0 0 51.2h290.112a25.6 25.6 0 1 0 0-51.2H290.944z m-25.6 213.312c0 14.144 11.456 25.6 25.6 25.6h439.424a25.6 25.6 0 0 0 0-51.2H290.944a25.6 25.6 0 0 0-25.6 25.6z" fill="#5CB88C" p-id="1584"></path></svg>